<?xml version="1.0" ?><!DOCTYPE svg  PUBLIC '-//W3C//DTD SVG 1.1//EN'  'http://www.w3.org/Graphics/SVG/1.1/DTD/svg11.dtd'><svg enable-background="new 0 0 256 256" id="Layer_1" version="1.1" viewBox="0 0 256 256" xml:space="preserve" xmlns="http://www.w3.org/2000/svg" xmlns:xlink="http://www.w3.org/1999/xlink"><g><path d="M128,1C57.9,1,1,57.9,1,128c0,34.8,14,66.3,36.6,89.2h180.7C241,194.3,255,162.8,255,128   C255,57.9,198.1,1,128,1z" fill="#36505F"/><path d="M128,255c35.4,0,67.3-14.5,90.4-37.8H37.6C60.7,240.5,92.6,255,128,255z" fill="#1AA386"/><polygon fill="#BF4028" points="198.6,128.8 128,88.4 57.4,128.8 67.8,134.1 67.9,134.2 188.2,134.2 188.2,134.1  "/><polygon fill="#CAB094" points="188.2,134.1 128,99.7 67.8,134.1 67.8,212 188.2,212 188.2,134.1  "/><polygon fill="#F9E0D2" points="102.5,91.9 102.5,211.5 153.5,211.5 153.5,91.9 153.5,91.9  "/><polygon fill="#BF4028" points="128,39.1 98.1,91.9 157.9,91.9  "/><rect fill="#AD8C6D" height="5.7" width="129.3" x="63.3" y="211.5"/><rect fill="#BF4028" height="22.5" width="2.9" x="126.6" y="22"/><rect fill="#BF4028" height="2.8" width="10.7" x="122.7" y="26.3"/><rect fill="#1F84AB" height="41.6" width="11" x="80.4" y="150.4"/><rect fill="#1F84AB" height="41.6" width="11" x="164.6" y="150.4"/><rect fill="#2C424F" height="38.4" width="21.6" x="117.2" y="173.1"/><rect fill="#1F84AB" height="18.5" width="18" x="119" y="101.6"/><rect fill="#1F84AB" height="18.5" width="18" x="119" y="137.3"/><path d="M36.8,101.3c3.4,0.1,6.4,3.1,6.5,6.5c2.7-2.3,6.7-3,10.1-1.9c0.5,0.2,1.1,0.3,1.4,0   c0.2-0.1,0.2-0.3,0.3-0.5c0.5-1.3,0.8-2.8,0.7-4.2c-0.8,0.1-1.4-0.6-1.8-1.3c-2-2.7-3.9-5.5-4.9-8.7c-0.4-1.3-0.7-2.8-1.5-3.9   c-1.4-1.9-4.1-2.4-6.3-3.4c-2.3-1.1-4.2-3-5.7-5.1c-1.4-2.2-2.4-4.6-3.2-7c0.2,3.1-0.8,6.4-2.7,8.9c-0.1,0.2-0.3,0.4-0.2,0.6   c0,0.2,0.1,0.3,0.3,0.4c0.6,0.6,1.3,1.1,1.8,1.8c1.8,2.2,1.7,5.7-0.2,7.8c2.2,0.3,4.2,1.8,5.2,3.7C37.7,96.9,37.8,99.3,36.8,101.3z   " fill="#2D2E2D"/><path d="M48.2,97.4c0.1,1.3,0.3,2.6,0.8,3.9c0.5,1.2,1.3,2.4,2.5,3c-1.6-0.4-2.9-1.7-3.9-3c-1-1.4-1.8-2.9-2.9-4.1   c-2.3-2.5-6.2-3.9-7.3-7.1c0.5,2.2,1.1,4.4,2.3,6.4c1.1,1.6,2.5,2.9,3.8,4.4s2.3,3.3,2.1,5.3c1.7-0.5,3.6-0.7,5.4-0.6   c0.7,0,1.5,0.1,2-0.4c0.7-0.6,0.6-1.7,1.4-2.2c-2.2-1.2-4-3.1-5.1-5.4c-1.3-2.7-1.7-6-4-7.9c-0.9-0.8-2.1-1.3-3.1-1.8   c-2-1-3.9-2.2-5.4-3.7c-1.5-1.6-2.7-3.6-3-5.8c-0.6,1.5-0.5,3.2,0.1,4.7c1.2,3,4.4,4.5,7.2,6c2.9,1.4,5.9,3.3,6.8,6.3   C48,95.9,48.1,96.6,48.2,97.4z" fill="#010101"/><path d="M74,112.4c-2.7-2-7-1.5-9.1,1.1c-0.7-3.5-3.4-6.5-6.8-7.7c-0.5-0.2-1-0.4-1.1-0.9c0-0.2,0-0.4,0.1-0.6   c0.4-1.4,1.1-2.7,2.1-3.7c0.6,0.5,1.5,0.3,2.2,0.1c3.2-0.9,6.5-1.9,9.2-3.8c1.1-0.8,2.2-1.8,3.6-2.2c2.3-0.7,4.7,0.6,7,1.2   c2.5,0.6,5.2,0.2,7.6-0.6c2.4-0.8,4.7-2.1,6.8-3.6c-2.1,2.4-3.3,5.5-3.4,8.6c0,0.2,0,0.5-0.2,0.6c-0.1,0.1-0.3,0.1-0.5,0.2   c-0.9,0.1-1.7,0.1-2.6,0.3c-2.8,0.6-4.9,3.4-4.7,6.3c-1.9-1.1-4.4-1.2-6.4-0.3C76,108.4,74.5,110.3,74,112.4z" fill="#2D2E2D"/><path d="M67.5,102.3c-0.9,1-1.9,1.9-3,2.6c-1.1,0.7-2.5,1-3.8,0.8c1.5,0.7,3.3,0.5,4.9,0c1.6-0.5,3.2-1.2,4.8-1.5   c3.4-0.6,7.2,0.7,10.1-1.1c-1.8,1.4-3.6,2.8-5.8,3.6c-1.8,0.6-3.8,0.7-5.7,1.2c-1.9,0.4-3.8,1.2-4.9,2.9c-1.1-1.5-2.4-2.8-3.9-3.8   c-0.6-0.4-1.3-0.8-1.4-1.5c-0.2-0.9,0.6-1.8,0.3-2.6c2.5,0.4,5.1,0,7.3-1.1c2.7-1.3,5-3.7,8-3.8c1.2-0.1,2.4,0.3,3.6,0.5   c2.2,0.5,4.4,0.7,6.6,0.4c2.2-0.3,4.3-1.2,6-2.7c-0.5,1.5-1.6,2.8-3,3.6c-2.8,1.6-6.2,0.9-9.4,0.3c-3.1-0.6-6.7-1.1-9.3,0.8   C68.5,101.2,68,101.8,67.5,102.3z" fill="#010101"/><path d="M53.5,113.5c2.8-2.2,5-5.1,5.9-8.5c0.5-1.8,0.6-3.8,1.2-5.5c0.6-1.7,0.9-2.8,2-4.3   c-1.4,0.6-2.1,0.8-3.5,1.3c-0.3,0.1-0.7,0.2-1.1,0.1c-0.3-0.1-0.5-0.4-0.9-0.5c-0.2-0.1-0.5,0-0.8-0.1c-0.3-0.1-0.5-0.4-0.6-0.6   c-0.5-0.8-1-1.7-1.5-2.5c-0.2,2-0.4,3.9-0.6,5.9c0,0.3-0.1,0.5-0.2,0.8c-0.2,0.3-0.4,0.6-0.7,0.8c-1.1,1.1-1.6,2.7-1.8,4.3   c-0.2,1.6,0,3.2,0,4.8c0.1,2.6-0.2,5.1-0.9,7.6C50.8,115.4,52.2,114.5,53.5,113.5z" fill="#272626"/><path d="M55.1,97.8c0.2,0.2,0.4,0.3,0.7,0.4c0.1,0,0.1,0,0.2-0.1c0.1-0.1,0.1-0.1,0.1-0.2c0-0.6-0.4-1.1-0.8-1.5   c-0.1-0.1-0.2-0.2-0.4-0.2c0,0-0.1,0-0.1,0c0,0,0,0,0,0.1c-0.1,0.3-0.1,0.5-0.1,0.8c0,0.1,0,0.2,0,0.3C54.8,97.5,55,97.7,55.1,97.8   z" fill="#F2CD56"/><path d="M59,98.7c-0.3,0-0.6,0-0.8-0.1c-0.1,0-0.1-0.1-0.1-0.2c0-0.1,0-0.2,0.1-0.2c0.3-0.5,1-0.7,1.6-0.8   c0.2,0,0.3,0,0.5,0c0,0,0,0,0.1,0.1c0,0,0,0,0,0.1c-0.1,0.2-0.2,0.5-0.4,0.7c-0.1,0.1-0.1,0.2-0.2,0.3C59.5,98.6,59.2,98.7,59,98.7   z" fill="#F2CD56"/><path d="M164.1,73.5c2.4-1.4,5.9-0.6,7.4,1.8c1-2.8,3.4-5,6.3-5.7c0.4-0.1,0.9-0.2,1-0.6c0.1-0.2,0-0.3,0-0.5   c-0.2-1.2-0.6-2.3-1.3-3.3c-0.5,0.4-1.2,0.1-1.8-0.1c-2.6-1.1-5.2-2.2-7.2-4c-0.9-0.8-1.7-1.7-2.7-2.1c-1.8-0.8-3.9,0.1-5.9,0.3   c-2.1,0.2-4.3-0.3-6.2-1.2c-1.9-0.9-3.7-2.2-5.3-3.6c1.5,2.1,2.2,4.8,1.9,7.4c0,0.2,0,0.4,0.1,0.5c0.1,0.1,0.2,0.1,0.4,0.2   c0.7,0.2,1.4,0.3,2.1,0.5c2.2,0.8,3.7,3.3,3.2,5.6c1.7-0.7,3.7-0.6,5.3,0.4S163.9,71.7,164.1,73.5z" fill="#2D2E2D"/><path d="M170.4,65.8c0.7,0.9,1.3,1.7,2.2,2.4c0.9,0.7,1.9,1.1,3,1c-1.3,0.4-2.8,0.1-4.1-0.5   c-1.3-0.5-2.5-1.3-3.8-1.7c-2.7-0.8-6-0.1-8.2-1.9c1.3,1.3,2.7,2.7,4.4,3.5c1.4,0.7,3.1,1,4.6,1.5c1.5,0.5,3,1.4,3.8,2.8   c1-1.1,2.2-2,3.5-2.7c0.5-0.3,1.1-0.6,1.3-1.1c0.2-0.7-0.3-1.5,0-2.2c-2.1,0.1-4.2-0.5-5.9-1.6c-2.1-1.3-3.8-3.5-6.2-3.9   c-1-0.2-2,0-3,0.1c-1.8,0.2-3.7,0.2-5.5-0.3c-1.8-0.5-3.5-1.4-4.6-2.8c0.3,1.3,1,2.5,2.1,3.3c2.1,1.6,5,1.3,7.7,1.1   c2.6-0.2,5.6-0.3,7.5,1.6C169.6,64.8,170,65.3,170.4,65.8z" fill="#010101"/><path d="M195.1,65.3c-2.8-0.3-5.6,1.9-5.9,4.7c-2-2.1-5.2-3.1-8.1-2.5c-0.4,0.1-0.9,0.2-1.2-0.1   c-0.1-0.1-0.2-0.3-0.2-0.5c-0.3-1.1-0.4-2.4-0.2-3.5c0.6,0.1,1.2-0.4,1.6-0.9c1.9-2,3.8-4.1,4.9-6.7c0.5-1.1,0.8-2.2,1.6-3.1   c1.4-1.5,3.6-1.6,5.5-2.2c2-0.7,3.8-2.1,5.1-3.7c1.4-1.6,2.4-3.5,3.3-5.5c-0.5,2.6,0,5.3,1.3,7.6c0.1,0.2,0.2,0.3,0.1,0.5   c0,0.1-0.1,0.2-0.3,0.3c-0.6,0.4-1.2,0.8-1.7,1.3c-1.7,1.6-1.9,4.5-0.6,6.4c-1.8,0.1-3.6,1-4.6,2.5   C194.8,61.6,194.5,63.6,195.1,65.3z" fill="#2D2E2D"/><path d="M186.2,61c-0.2,1.1-0.5,2.1-1,3.1c-0.5,1-1.3,1.8-2.3,2.2c1.4-0.2,2.6-1.1,3.5-2.1c0.9-1,1.7-2.2,2.8-3.1   c2.2-1.9,5.4-2.6,6.6-5.2c-0.7,1.8-1.3,3.5-2.5,5c-1,1.2-2.4,2.2-3.5,3.3c-1.2,1.1-2.2,2.5-2.2,4.1c-1.4-0.6-2.9-0.9-4.4-1   c-0.6,0-1.2-0.1-1.6-0.5c-0.5-0.5-0.3-1.5-0.9-2c1.9-0.8,3.6-2.2,4.7-3.9c1.3-2.1,2-4.8,4-6.1c0.8-0.6,1.8-0.8,2.7-1.2   c1.7-0.6,3.4-1.4,4.8-2.6c1.4-1.2,2.6-2.7,3.1-4.5c0.3,1.3,0.1,2.7-0.5,3.8c-1.3,2.3-4,3.3-6.5,4.2c-2.5,0.9-5.2,2.1-6.2,4.6   C186.4,59.7,186.3,60.3,186.2,61z" fill="#010101"/><path d="M181.1,74.9c1-2.7,1.3-5.8,0.5-8.6c-0.4-1.5-1.2-2.9-1.5-4.5c-0.3-1.5-0.6-2.4-0.5-3.9   c-0.7,1-1.1,1.5-2,2.4c-0.2,0.2-0.4,0.4-0.7,0.5c-0.3,0.1-0.6-0.1-0.8,0c-0.2,0.1-0.4,0.2-0.6,0.3c-0.2,0-0.5-0.1-0.7-0.2   c-0.7-0.4-1.4-0.8-2.1-1.1c0.7,1.5,1.4,2.9,2.1,4.4c0.1,0.2,0.2,0.4,0.2,0.6c0,0.3-0.1,0.6-0.1,0.9c-0.3,1.3,0,2.6,0.6,3.8   c0.6,1.2,1.4,2.2,2.1,3.3c1.1,1.8,2.1,3.7,2.7,5.8C180,77.4,180.6,76.1,181.1,74.9z" fill="#272626"/><path d="M175.5,63.1c0.2,0,0.5,0.1,0.7-0.1c0,0,0.1-0.1,0.1-0.1c0-0.1,0-0.1,0-0.2c-0.2-0.4-0.7-0.6-1.2-0.7   c-0.1,0-0.3,0-0.4,0c0,0,0,0,0,0c0,0,0,0,0,0.1c0.1,0.2,0.2,0.4,0.3,0.6c0,0.1,0.1,0.2,0.2,0.2C175.1,63,175.3,63.1,175.5,63.1z" fill="#F2CD56"/><path d="M178.6,62c-0.2,0.1-0.4,0.3-0.6,0.3c-0.1,0-0.1,0-0.2-0.1c0,0-0.1-0.1-0.1-0.2c0-0.5,0.4-0.9,0.8-1.2   c0.1-0.1,0.2-0.2,0.4-0.2c0,0,0,0,0.1,0c0,0,0,0,0,0c0,0.2,0,0.4,0,0.6c0,0.1,0,0.2-0.1,0.3C178.9,61.8,178.8,61.9,178.6,62z" fill="#F2CD56"/></g></svg>