<?xml version="1.0" ?><!DOCTYPE svg  PUBLIC '-//W3C//DTD SVG 1.1//EN'  'http://www.w3.org/Graphics/SVG/1.1/DTD/svg11.dtd'><svg enable-background="new 0 0 512 512" height="512px" id="Layer_1" version="1.1" viewBox="0 0 512 512" width="512px" xml:space="preserve" xmlns="http://www.w3.org/2000/svg" xmlns:xlink="http://www.w3.org/1999/xlink"><radialGradient cx="256" cy="261.5195" gradientTransform="matrix(1 0 0 1 0 -5.5195)" gradientUnits="userSpaceOnUse" id="SVGID_1_" r="256"><stop offset="0.5044" style="stop-color:#FCBE41"/><stop offset="0.9949" style="stop-color:#FCB23F"/></radialGradient><circle cx="256" cy="256.001" fill="#FAD704" r="256"/><g><path d="M403,150.939c0-4.938-4.002-8.939-8.939-8.939H116.939c-4.938,0-8.939,4.002-8.939,8.939v182.121   c0,4.938,4.002,8.939,8.939,8.939h277.121c4.938,0,8.939-4.002,8.939-8.939V150.939z" fill="#2B3E51"/><path d="M385.445,152H255.82H126.197c-4.916,0-9.197,3.4-9.197,8.317v140.351c0,4.917,4.281,9.332,9.197,9.332   H255.82h129.625c4.916,0,7.555-4.415,7.555-9.332V160.317C393,155.4,390.361,152,385.445,152z" fill="#\#4CB0C1"/><path d="M385.445,152H255v158h130.445c4.916,0,7.555-4.415,7.555-9.332V160.317C393,155.4,390.361,152,385.445,152z   " fill="#2C97DE"/><path d="M81,388v6.996c0,0.447,0.28,0.865,0.328,1.303C81.986,402.191,87.199,407,93.23,407h324.756   c6.033,0,11.291-4.809,12-10.701c0.051-0.438,0.014-0.855,0.014-1.303V388H81z" fill="#ECF0F1"/><circle cx="368.429" cy="396.456" fill="#2C97DE" r="4.794"/><circle cx="381.782" cy="396.456" fill="#1ECA6B" r="4.794"/><polygon fill="#BDC3C7" points="403.323,319 108.318,319 81.5,388 430.144,388  "/><path d="M98.215,378c-1.967,0-2.984-1.273-2.262-3.104l17.135-42.991c0.722-1.829,2.922-2.905,4.889-2.905h275.689   c1.967,0,4.166,1.188,4.889,3.018l17.135,43.031c0.723,1.831-0.296,2.951-2.263,2.951H98.215z" fill="#33495F"/></g><path d="M349.266,62.482c-29.316-15.816-86.199,134.078-86.199,134.078l8.059,4.544l8.266,4.659  C279.391,205.764,377.977,79.376,349.266,62.482z" fill="#32495D"/><path d="M349.266,62.482l-78.141,138.622l8.266,4.659C279.391,205.764,377.977,79.376,349.266,62.482z" fill="#2A3E4F"/><rect fill="#F4C342" height="23.439" transform="matrix(0.8712 0.491 -0.491 0.8712 137.9442 -103.0715)" width="18.503" x="256.12" y="199.593"/><rect fill="#F89B36" height="23.438" transform="matrix(0.8712 0.4909 -0.4909 0.8712 139.5605 -104.7497)" width="9.253" x="264.774" y="201.866"/><path d="M251.558,216.979c0,0-35.58-0.94-35.981,34.941c-0.402,35.883-23.408,26.454-23.408,26.454  s32.38,31.45,68.07-2.693c30.735-29.404,7.438-49.617,7.438-49.617L251.558,216.979z" fill="#EC7C2D"/><path d="M267.677,226.064l-16.119-9.085c0,0-2.257-0.06-5.636,0.424c2.074,1.938,21.545,21.56-7.615,49.455  c-15.012,14.364-29.44,17.118-41.118,15.489c10.435,7.211,35.775,19.428,63.05-6.666  C290.974,246.277,267.677,226.064,267.677,226.064z" fill="#D9521E"/></svg>