<?xml version="1.0" ?><!DOCTYPE svg  PUBLIC '-//W3C//DTD SVG 1.1//EN'  'http://www.w3.org/Graphics/SVG/1.1/DTD/svg11.dtd'><svg enable-background="new 0 0 500 500" height="500px" id="Layer_5" version="1.1" viewBox="0 0 500 500" width="500px" xml:space="preserve" xmlns="http://www.w3.org/2000/svg" xmlns:xlink="http://www.w3.org/1999/xlink"><g><path d="M498.854,250.411c0,137.924-111.819,249.736-249.752,249.736c-137.932,0-249.75-111.812-249.75-249.736   c0-137.939,111.818-249.752,249.75-249.752C387.034,0.659,498.854,112.472,498.854,250.411z" fill="#5CC4DD"/><g><defs><path d="M498.845,250.396c0,137.939-111.811,249.752-249.743,249.752c-137.932,0-249.747-111.812-249.747-249.752     c0-137.931,111.815-249.743,249.747-249.743C387.034,0.652,498.845,112.465,498.845,250.396z" id="SVGID_1_"/></defs><clipPath id="SVGID_2_"><use overflow="visible" xlink:href="#SVGID_1_"/></clipPath><polyline clip-path="url(#SVGID_2_)" fill="#2099AE" points="109.532,272.218 339.382,568.037 582.186,272.218 402.086,195.733     324.279,270.79   "/></g><g><g><path d="M405.823,219.864c0-44.028-35.688-79.703-79.702-79.703c-31.317,0-58.407,18.073-71.436,44.356     c-13.029-26.283-40.114-44.356-71.438-44.356c-40.867,0-74.536,30.773-79.142,70.412     C91.6,316.929,226.028,397.555,254.057,403.851l0.317,0.425c0.376,0,0.844-0.043,1.345-0.113c0.522,0.07,1.005,0.113,1.393,0.113     l-0.249-0.326c24.646-5.329,137.964-78.794,148.506-175.646C405.667,225.534,405.823,222.72,405.823,219.864z" fill="#C1322F"/><path d="M250.086,355.787c0,0-15.689-42.325-10.493-123.434c0.317-2.473,0.533-4.973,0.533-7.544     c0-32.649-26.479-59.131-59.142-59.131s-59.142,26.482-59.142,59.131c0,0,0.007,0.696,0.1,1.947     c0.206,6.336,1.406,12.401,3.453,18.085c8.048,28.372,34.424,81.707,121.04,125.138     C246.435,369.979,255.199,364.069,250.086,355.787z" fill="#F37D4A"/></g><path d="M96.859,171.347c-0.447,0-0.902-0.039-1.36-0.128c-3.945-0.747-6.543-4.554-5.793-8.5    c1.971-10.407,6.986-19.882,14.506-27.398c7.458-7.463,16.864-12.467,27.204-14.47c3.906-0.772,7.757,1.817,8.524,5.761    c0.764,3.942-1.814,7.76-5.761,8.524c-7.474,1.447-14.278,5.068-19.678,10.471c-5.447,5.446-9.077,12.297-10.501,19.82    C103.338,168.917,100.287,171.347,96.859,171.347z" fill="#FFFFFF"/><path d="M71.083,163.838c-0.447,0-0.902-0.039-1.36-0.128c-3.946-0.745-6.542-4.554-5.793-8.499    c2.959-15.631,10.497-29.867,21.794-41.163c11.206-11.216,25.342-18.736,40.872-21.749c3.96-0.752,7.76,1.812,8.527,5.757    c0.764,3.947-1.814,7.762-5.757,8.529c-12.669,2.455-24.201,8.591-33.351,17.748c-9.225,9.225-15.377,20.836-17.791,33.583    C77.562,161.409,74.511,163.838,71.083,163.838z" fill="#FFFFFF"/><path d="M345.2,390.758c-3.417,0-6.464-2.416-7.132-5.89c-0.767-3.949,1.811-7.763,5.754-8.523    c7.48-1.45,14.278-5.073,19.685-10.478c5.44-5.436,9.07-12.291,10.499-19.82c0.746-3.943,4.504-6.543,8.503-5.789    c3.95,0.745,6.535,4.554,5.79,8.502c-1.977,10.416-6.998,19.891-14.506,27.393c-7.458,7.465-16.864,12.475-27.2,14.471    C346.124,390.715,345.655,390.758,345.2,390.758z" fill="#FFFFFF"/><path d="M350.017,419.307c-3.417,0-6.457-2.414-7.131-5.889c-0.77-3.941,1.811-7.764,5.754-8.524    c12.673-2.458,24.208-8.595,33.356-17.752c9.214-9.214,15.366-20.828,17.788-33.585c0.747-3.943,4.567-6.55,8.504-5.79    c3.95,0.752,6.543,4.552,5.79,8.502c-2.97,15.643-10.507,29.871-21.794,41.16c-11.21,11.216-25.339,18.732-40.875,21.743    C350.94,419.265,350.472,419.307,350.017,419.307z" fill="#FFFFFF"/></g></g></svg>