<?xml version="1.0" ?><!DOCTYPE svg  PUBLIC '-//W3C//DTD SVG 1.0//EN'  'http://www.w3.org/TR/2001/REC-SVG-20010904/DTD/svg10.dtd'><svg height="110px" style="enable-background:new 0 0 110 110;" version="1.0" viewBox="0 0 110 110" width="110px" xml:space="preserve" xmlns="http://www.w3.org/2000/svg" xmlns:xlink="http://www.w3.org/1999/xlink"><g id="Artboard"/><g id="Multicolor"><circle cx="55" cy="55" r="55" style="fill:#DEBD25;"/><g><path d="M31,72.088C31,61.809,37.376,53.609,47,50h16c9.624,3.609,16,11.809,16,22.088V87H31V72.088z" style="fill:#3E3E3F;"/><path d="M64.64,50.68C60.33,56.16,55,65.48,55,78c0-12.52-5.33-21.84-9.64-27.32    C45.9,50.44,46.44,50.21,47,50h16C63.56,50.21,64.11,50.43,64.64,50.68z" style="fill:#FFFFFF;"/><g><path d="M58,62l-3-7l-3,7l0.068,0.408C53.792,66.842,55,72.055,55,78c0-5.945,1.208-11.158,2.932-15.592     L58,62z" style="fill:#3E3E3F;"/></g><path d="M68,39c0,8.837-3,16-13,16s-13-7.163-13-16s5.82-16,13-16S68,30.163,68,39z" style="fill:#FBC8C8;"/><path d="M68,39c0,8.837-3,16-13,16s-13-7.163-13-16s5.82-16,13-16S68,30.163,68,39z" style="fill:#FBC8C8;"/><path d="M69.113,39.254c-0.365-0.13-0.742-0.166-1.115-0.133c-0.008,2.447-0.257,4.755-0.815,6.823    c1.451,0.259,2.991-0.726,3.583-2.387C71.413,41.737,70.674,39.81,69.113,39.254z" style="fill:#FBC8C8;"/><path d="M40.887,39.254c0.365-0.13,0.742-0.166,1.115-0.133c0.008,2.447,0.257,4.755,0.815,6.823    c-1.451,0.259-2.991-0.726-3.583-2.387C38.587,41.737,39.326,39.81,40.887,39.254z" style="fill:#FBD7D7;"/><path d="M42,39c0,8.836,3,16,13,16V23C47.82,23,42,30.164,42,39z" style="fill:#FBD7D7;"/><path d="M54.994,37c4.695,0,9.165-0.729,12.576-2.021C66.12,28.092,61.049,23,55,23    c-6.05,0-11.122,5.094-12.571,11.983C45.839,36.272,50.304,37,54.994,37z" style="fill:#3E3E3F;"/><path d="M55,23c-6.05,0-11.122,5.094-12.571,11.983C45.838,36.272,50.304,37,54.994,37    c0.002,0,0.004,0,0.006,0V23z" style="fill:#5B5C5F;"/><polygon points="57,47 59,51 51,51 53,47   " style="fill:#3E3E3F;"/><g><path d="M54.994,41c-6.022,0-11.804-1.12-15.861-3.073c-0.995-0.479-1.414-1.674-0.935-2.669     c0.479-0.996,1.677-1.413,2.669-0.935C44.404,36.024,49.552,37,54.994,37c5.445,0,10.596-0.977,14.132-2.68     c0.998-0.479,2.191-0.061,2.67,0.934c0.479,0.995,0.062,2.19-0.934,2.669C66.803,39.879,61.02,41,54.994,41z" style="fill:#5B5C5F;"/></g><path d="M49.884,41c-0.366,0-0.704,0.109-0.993,0.289c0.28,0.164,0.478,0.455,0.478,0.803    c0,0.521-0.423,0.944-0.944,0.944c-0.155,0-0.296-0.047-0.425-0.113c0.019,1.026,0.854,1.853,1.884,1.853    c1.043,0,1.888-0.845,1.888-1.888C51.772,41.845,50.927,41,49.884,41z" style="fill:#3E3E3F;"/><path d="M59.884,41c-0.366,0-0.704,0.109-0.993,0.289c0.28,0.164,0.478,0.455,0.478,0.803    c0,0.521-0.423,0.944-0.944,0.944c-0.155,0-0.296-0.047-0.425-0.113c0.019,1.026,0.854,1.853,1.884,1.853    c1.043,0,1.888-0.845,1.888-1.888C61.772,41.845,60.927,41,59.884,41z" style="fill:#3E3E3F;"/><path d="M55,37c-0.002,0-0.004,0-0.005,0c-5.442,0-10.591-0.976-14.127-2.677    c-0.992-0.478-2.19-0.061-2.669,0.935c-0.479,0.995-0.061,2.19,0.935,2.669C43.191,39.88,48.972,41,54.995,41    c0.001,0,0.003,0,0.005,0V37z" style="fill:#818284;"/><g><path d="M34.28,60.21L43,61l-1,5c0,0,12,2,12.99,11.99L55,78c0-12.52-5.33-21.84-9.64-27.32     C40.933,52.631,36.868,55.956,34.28,60.21z" style="fill:#5B5C5F;"/><path d="M75.72,60.21c-2.588-4.254-6.653-7.579-11.08-9.53C60.33,56.16,55,65.48,55,78l0.01-0.01     C56,68,68,66,68,66l-1-5L75.72,60.21z" style="fill:#5B5C5F;"/></g><path d="M79,57v30h4V57c0-4.411-3.589-8-8-8s-8,3.589-8,8v2c0,1.104,0.896,2,2,2s2-0.896,2-2v-2    c0-2.206,1.794-4,4-4S79,54.794,79,57z" style="fill:#9C6144;"/></g></g></svg>