<?xml version="1.0" ?><!DOCTYPE svg  PUBLIC '-//W3C//DTD SVG 1.1//EN'  'http://www.w3.org/Graphics/SVG/1.1/DTD/svg11.dtd'><svg height="6.82666in" style="shape-rendering:geometricPrecision; text-rendering:geometricPrecision; image-rendering:optimizeQuality; fill-rule:evenodd; clip-rule:evenodd" viewBox="0 0 6.82666 6.82666" width="6.82666in" xml:space="preserve" xmlns="http://www.w3.org/2000/svg" xmlns:xlink="http://www.w3.org/1999/xlink"><defs><style type="text/css">
   <![CDATA[
    .fil2 {fill:none}
    .fil1 {fill:#C1322F}
    .fil0 {fill:#F04923}
    .fil3 {fill:#FBC02D;fill-rule:nonzero}
   ]]>
  </style><clipPath id="id0"><path d="M3.41333 -3.93701e-006c1.88514,0 3.41333,1.5282 3.41333,3.41333 0,1.88514 -1.5282,3.41333 -3.41333,3.41333 -1.88514,0 -3.41333,-1.5282 -3.41333,-3.41333 0,-1.88514 1.5282,-3.41333 3.41333,-3.41333z"/></clipPath></defs><g id="Layer_x0020_1"><path class="fil0" d="M3.41333 -3.93701e-006c1.88514,0 3.41333,1.5282 3.41333,3.41333 0,1.88514 -1.5282,3.41333 -3.41333,3.41333 -1.88514,0 -3.41333,-1.5282 -3.41333,-3.41333 0,-1.88514 1.5282,-3.41333 3.41333,-3.41333z"/><g style="clip-path:url(#id0)"><g id="_544116320"><g><polygon class="fil1" id="_4905321761" points="3.48601,1.73589 7.27228,5.52216 7.50206,6.10176 3.7158,2.31549 "/><polygon class="fil1" id="_490531768" points="4.34494,1.79507 8.1312,5.58134 8.10149,5.78321 4.31522,1.99694 "/><polygon class="fil1" id="_490532992" points="3.41099,1.54666 7.19726,5.33293 7.27228,5.52216 3.48601,1.73589 "/><polygon class="fil1" id="_490532392" points="4.31522,1.99694 8.10149,5.78321 8.01069,6.40011 4.22442,2.61383 "/><polygon class="fil1" id="_490532800" points="4.90241,2.63748 8.68867,6.42375 8.30144,6.91278 4.51517,3.12651 "/><polygon class="fil1" id="_490532656" points="5.28,3.41099 9.06627,7.19726 8.87704,7.27228 5.09077,3.48601 "/><polygon class="fil1" id="_490533016" points="5.09077,3.48601 8.87704,7.27228 8.29744,7.50207 4.51117,3.7158 "/><polygon class="fil1" id="_490533424" points="4.51117,3.7158 8.29744,7.50207 8.68775,7.97393 4.90148,4.18765 "/><polygon class="fil1" id="_490533832" points="4.90148,4.18765 8.68775,7.97393 8.81786,8.13121 5.03159,4.34494 "/><polygon class="fil1" id="_490533496" points="5.03159,4.34494 8.81786,8.13121 8.61599,8.1015 4.82972,4.31522 "/><polygon class="fil1" id="_490533448" points="4.82972,4.31522 8.61599,8.1015 7.99909,8.01069 4.21283,4.22442 "/><polygon class="fil1" id="_490533280" points="4.21283,4.22442 7.99909,8.01069 8.10119,8.61446 4.31492,4.82819 "/><polygon class="fil1" id="_490533352" points="4.31492,4.82819 8.10119,8.61446 8.13511,8.8151 4.34884,5.02883 "/><polygon class="fil1" id="_490533664" points="4.34884,5.02883 8.13511,8.8151 7.97545,8.68868 4.18919,4.90241 "/><polygon class="fil1" id="_490533904" points="4.18919,4.90241 7.97545,8.68868 7.48642,8.30144 3.70015,4.51517 "/><polygon class="fil1" id="_490533376" points="2.31149,3.70015 6.09776,7.48642 5.52369,7.27289 1.73742,3.48662 "/><polygon class="fil1" id="_490533856" points="1.73742,3.48662 5.52369,7.27289 5.33293,7.20194 1.54666,3.41567 "/><polygon class="fil1" id="_490533184" points="2.60224,4.21283 6.38851,7.9991 5.78474,8.10119 1.99847,4.31492 "/><polygon class="fil1" id="_490534432" points="1.99847,4.31492 5.78474,8.10119 5.5841,8.13511 1.79783,4.34884 "/><polygon class="fil1" id="_490533928" points="3.11087,4.51117 6.89713,8.29744 6.42528,8.68776 2.63901,4.90148 "/><polygon class="fil1" id="_490534312" points="2.63901,4.90148 6.42528,8.68776 6.26799,8.81786 2.48172,5.03159 "/><polygon class="fil1" id="_490534072" points="3.70015,4.51517 7.48642,8.30144 7.27289,8.87551 3.48662,5.08924 "/><polygon class="fil1" id="_490534240" points="3.48662,5.08924 7.27289,8.87551 7.20194,9.06627 3.41567,5.28 "/><polygon class="fil1" id="_490534192" points="5.02883,2.47782 8.81509,6.26409 8.68867,6.42375 4.90241,2.63748 "/></g><polygon class="fil1" id="_544116248" points="3.48601,1.73589 3.7158,2.31549 4.18765,1.92518 4.34494,1.79507 4.31522,1.99694 4.22442,2.61383 4.82819,2.51174 5.02883,2.47782 4.90241,2.63748 4.51517,3.12651 5.08924,3.34004 5.28,3.41099 5.09077,3.48601 4.51117,3.7158 4.90148,4.18765 5.03159,4.34494 4.82972,4.31522 4.21283,4.22442 4.31492,4.82819 4.34884,5.02883 4.18919,4.90241 3.70015,4.51517 3.48662,5.08924 3.41567,5.28 3.34065,5.09077 3.11087,4.51117 2.63901,4.90148 2.48172,5.03159 2.51144,4.82972 2.60224,4.21283 1.99847,4.31492 1.79783,4.34884 1.92426,4.18919 2.31149,3.70015 1.73742,3.48662 1.54666,3.41567 1.73589,3.34065 2.31549,3.11087 1.92518,2.63901 1.79507,2.48172 1.99694,2.51144 2.61383,2.60224 2.51174,1.99847 2.47782,1.79783 2.63748,1.92426 3.12651,2.31149 3.34004,1.73742 3.41099,1.54666 "/></g></g><path class="fil2" d="M3.41333 -3.93701e-006c1.88514,0 3.41333,1.5282 3.41333,3.41333 0,1.88514 -1.5282,3.41333 -3.41333,3.41333 -1.88514,0 -3.41333,-1.5282 -3.41333,-3.41333 0,-1.88514 1.5282,-3.41333 3.41333,-3.41333z"/><polygon class="fil3" points="3.48601,1.73589 3.7158,2.31549 4.18765,1.92518 4.34494,1.79507 4.31522,1.99694 4.22442,2.61383 4.82819,2.51174 5.02883,2.47782 4.90241,2.63748 4.51517,3.12651 5.08924,3.34004 5.28,3.41099 5.09077,3.48601 4.51117,3.7158 4.90148,4.18765 5.03159,4.34494 4.82972,4.31522 4.21283,4.22442 4.31492,4.82819 4.34884,5.02883 4.18919,4.90241 3.70015,4.51517 3.48662,5.08924 3.41567,5.28 3.34065,5.09077 3.11087,4.51117 2.63901,4.90148 2.48172,5.03159 2.51144,4.82972 2.60224,4.21283 1.99847,4.31492 1.79783,4.34884 1.92426,4.18919 2.31149,3.70015 1.73742,3.48662 1.54666,3.41567 1.73589,3.34065 2.31549,3.11087 1.92518,2.63901 1.79507,2.48172 1.99694,2.51144 2.61383,2.60224 2.51174,1.99847 2.47782,1.79783 2.63748,1.92426 3.12651,2.31149 3.34004,1.73742 3.41099,1.54666 "/></g></svg>