<?xml version="1.0" ?><!DOCTYPE svg  PUBLIC '-//W3C//DTD SVG 1.1//EN'  'http://www.w3.org/Graphics/SVG/1.1/DTD/svg11.dtd'><svg enable-background="new 0 0 500 500" height="500px" id="Layer_1" version="1.1" viewBox="0 0 500 500" width="500px" xml:space="preserve" xmlns="http://www.w3.org/2000/svg" xmlns:xlink="http://www.w3.org/1999/xlink"><g><path d="M397.101,343.032c10.89,44.505-16.141,89.362-60.36,100.176c-44.221,10.826-88.896-16.48-99.792-60.985   c-10.884-44.511,16.132-89.371,60.353-100.197C341.521,271.206,386.203,298.52,397.101,343.032" fill="#FFFFFF"/><path d="M499.891,249.753c0,137.927-111.826,249.737-249.759,249.737C112.206,499.49,0.38,387.678,0.38,249.753   C0.379,111.813,112.206,0,250.131,0C388.062,0,499.891,111.813,499.891,249.753" fill="#245B63"/><g><defs><path d="M499.877,249.737c0,137.941-111.812,249.753-249.746,249.753C112.19,499.49,0.379,387.68,0.379,249.737     C0.379,111.813,112.19,0,250.131,0C388.062,0,499.877,111.813,499.877,249.737" id="SVGID_1_"/></defs><clipPath id="SVGID_2_"><use overflow="visible" xlink:href="#SVGID_1_"/></clipPath><polyline clip-path="url(#SVGID_2_)" fill="#234C57" points="73.704,323.148 330.432,565.293 590.293,303.5 406.199,249.746     344.98,248.509 73.704,323.148   "/></g><path d="M368.096,243.487c0.015-0.512-2.125-11.87-2.125-12.381c0-26.853-27.812-112.012-67.455-122.625   c-19.151-5.115-39.478,1.479-55.068,17.071c-9.562-7.877-22.818-11.629-38.269-7.65c-27.576,7.075-51.957,90.153-60.161,128.847   c-48.753,0.987-79.683,16.646-90.089,26.958c-25.168,24.955,1.669,73.546,134.771,72.799   c120.272-0.66,254.349-72.799,254.349-72.799C466.212,249.746,418.645,242.464,368.096,243.487" fill="#F9D805"/><path d="M315.705,148.781c-24.529,8.523-84.655,32.413-69.326,66.412c6.074,13.455,23.805,21.347,35.932,9.491   c9.135-8.922,2.379-20.757,6.543-30.759C295.566,177.806,304.531,162.362,315.705,148.781z" fill="#DEBD25"/><path d="M180.962,157.391c7.11,3.182,15.095,10.102,0.76,44.455c-5.67,13.597-13.17,23.336-19.685,13.533   c-4.908-7.395,1.72-15.409,9.846-28.557C179.521,174.459,192.72,162.668,180.962,157.391z" fill="#DEBD25"/><path d="M145.018,246.748c0,0,67.564,25.203,220.953-15.642l5.655,32.94l-12.688,7.522   c0,0-147.629,41.33-219.555-2.862L145.018,246.748" fill="#615A56"/><polyline fill="#4A423E" points="314.618,243.062 279.811,249.043 279.811,286.302 315.705,281.064 314.618,243.062  "/><path d="M278.837,122.804c-9.842,0-23.335,12.792-23.335,12.792c-11.867,7.48-20.153,10.187-25.937,10.187   c-15.181,0-13.099-18.667-13.099-18.667c-2.625-0.808-4.746-1.144-6.458-1.144c-8.56,0-6.882,8.417-6.882,8.417   c0.281-0.052,0.549-0.078,0.808-0.078c17.649,0.005-14.234,119.541-14.234,119.541l14.612,0.541   c3.609-97.01,75.499-120.004,75.499-120.004c7.75-3.296,5.76-8.418,5.76-8.417C283.794,123.701,281.444,122.804,278.837,122.804" fill="#F9E452"/><path d="M73.1,268.003c0,0-44.704,26.667,8.488,53.343c0,0,33.57,15.743,95.349,15.743   c15.366,0,32.464-0.973,51.24-3.402c0.36-1.119,0.741-2.229,1.143-3.331c-17.26,2.251-35.157,3.676-52.82,3.676   c-32.674,0-64.514-4.879-89.91-18.446c0,0-41.053-15.856-9.853-39.101C76.737,276.484,86.135,268.003,73.1,268.003" fill="#F9E452"/><g><defs><polyline id="SVGID_3_" points="223.654,268.786 410.438,268.786 410.438,491.896 223.654,491.896 223.654,268.786    "/></defs><clipPath id="SVGID_4_"><use overflow="visible" xlink:href="#SVGID_3_"/></clipPath><path clip-path="url(#SVGID_4_)" d="M354.441,476.732c-6.481,2.983-13.103,5.693-19.868,8.123    c1.555,4.26,5.601,7.041,10.017,7.041c0.834,0,1.682-0.1,2.528-0.307c5.711-1.396,9.207-7.196,7.792-12.94L354.441,476.732" fill="#FFFFFF"/><path clip-path="url(#SVGID_4_)" d="M354.441,476.732c-6.481,2.983-13.103,5.693-19.868,8.123l0,0    C341.339,482.426,347.96,479.716,354.441,476.732L354.441,476.732" fill="#245B63"/><path clip-path="url(#SVGID_4_)" d="M385.6,342.246c-5.914,2.908-11.409,5.563-16.569,8.011    c4.073,30.761-15.53,60.359-46.172,67.863c-0.291,0.067-0.582,0.104-0.866,0.104c-1.642,0-3.126-1.108-3.53-2.771    c-0.481-1.951,0.717-3.92,2.664-4.396c26.245-6.433,43.292-31.25,40.951-57.535c-41.007,19.067-60.788,24.7-108.251,42.732    c12.203,23.281,36.313,38.449,63.398,38.449c5.676,0,11.382-0.688,16.949-2.053c38.312-9.369,61.788-48.396,52.348-86.991    C386.24,344.511,385.933,343.371,385.6,342.246" fill="#234C57"/><path clip-path="url(#SVGID_4_)" d="M364.574,308.884c-12.783-11.475-29.578-18.27-47.703-18.27    c-5.677,0-11.381,0.688-16.95,2.052c-19.61,4.8-35.337,17.368-44.751,33.671c52.91-9.493,94.35-24.394,94.35-24.394    c-35.224,13.586-67.35,22.366-96.174,27.754c-1.867,3.668-3.425,7.5-4.648,11.456c-3.74,12.089-4.357,25.33-1.13,38.52    c1.438,5.873,3.557,11.428,6.259,16.582c47.463-18.032,67.244-23.665,108.251-42.732c-0.241-2.714-0.689-5.44-1.355-8.167    c-0.477-1.953,0.718-3.92,2.663-4.396c0.298-0.073,0.595-0.108,0.886-0.108c1.65,0,3.107,1.125,3.513,2.772    c0.541,2.212,0.955,4.426,1.247,6.634c5.16-2.447,10.655-5.103,16.569-8.011C381.693,329.037,374.294,317.609,364.574,308.884z" fill="#DEBD25"/><path clip-path="url(#SVGID_4_)" d="M349.52,301.943c0,0-41.439,14.9-94.35,24.394    c-0.638,1.104-1.245,2.224-1.824,3.36C282.17,324.31,314.296,315.529,349.52,301.943" fill="#DEBD25"/><path clip-path="url(#SVGID_4_)" d="M354.44,476.731c-6.48,2.982-13.102,5.693-19.867,8.123v0.001    C341.339,482.426,347.96,479.716,354.44,476.731L354.44,476.731" fill="#DEBD25"/><path clip-path="url(#SVGID_4_)" d="M348.198,451.221c-0.093,0.032-0.186,0.065-0.278,0.098    c0.39,5.123-2.95,9.921-8.076,11.178c-0.845,0.206-1.691,0.306-2.523,0.306c-4.212,0-8.086-2.526-9.786-6.453l6.69,27.357    c0.097,0.394,0.213,0.776,0.349,1.148c6.766-2.43,13.387-5.141,19.867-8.123L348.198,451.221" fill="#DEBD25"/><path clip-path="url(#SVGID_4_)" d="M347.92,451.318c-2.784,0.97-5.638,1.815-8.558,2.53    c-3.953,0.967-7.959,1.675-11.984,2.119c0.05,0.128,0.102,0.255,0.156,0.381c1.7,3.927,5.574,6.453,9.786,6.453    c0.832,0,1.679-0.1,2.523-0.306C344.97,461.239,348.31,456.441,347.92,451.318" fill="#DEBD25"/><path clip-path="url(#SVGID_4_)" d="M386.656,300.176c-6.904,2.842-14.288,5.769-22.082,8.708    c9.72,8.726,17.119,20.153,21.025,33.362c0.333,1.125,0.641,2.265,0.922,3.414c9.44,38.595-14.036,77.622-52.348,86.991    c-5.567,1.364-11.273,2.053-16.949,2.053c-27.085,0-51.195-15.168-63.398-38.449c-2.702-5.154-4.822-10.709-6.259-16.582    c-3.227-13.189-2.609-26.431,1.13-38.52c-2.449,0.407-4.897,0.793-7.354,1.159c-3.296,12.241-3.643,25.471-0.417,38.654    c0.717,2.928-1.077,5.883-4.003,6.6c-0.439,0.105-0.871,0.154-1.301,0.154c-2.455,0-4.684-1.669-5.296-4.156    c-3.295-13.468-3.319-26.98-0.584-39.686c-1.439,0.174-2.889,0.341-4.329,0.498c-1.147,5.83-1.747,11.81-1.759,17.87v0.359    c0.014,7.345,0.894,14.805,2.716,22.251c10.329,42.195,47.69,71.67,90.855,71.671c3.386,0,6.776-0.188,10.152-0.561    c4.025-0.444,8.031-1.152,11.984-2.119c2.92-0.715,5.773-1.561,8.558-2.53c0.093-0.032,0.186-0.065,0.278-0.098    c44.705-15.741,71.083-63.503,59.523-110.746C403.953,325.076,396.589,311.372,386.656,300.176" fill="#898989"/><path clip-path="url(#SVGID_4_)" d="M232.8,333.062c-1.551,0.218-3.093,0.426-4.623,0.624    c-1.125,3.492-2.051,7.063-2.764,10.69c1.439-0.157,2.89-0.324,4.329-0.498C230.534,340.199,231.557,336.587,232.8,333.062     M253.346,329.697c-2.713,0.508-5.402,0.986-8.056,1.434c-1.592,3.608-2.915,7.349-3.947,11.182    c2.457-0.366,4.905-0.752,7.354-1.159C249.921,337.197,251.479,333.365,253.346,329.697 M269.42,287.366    c-3.066,0.278-6.171,0.529-9.296,0.749c-14.096,10.889-24.752,25.615-30.804,42.24c1.583-0.206,3.164-0.42,4.736-0.641    C240.972,312.362,253.282,297.381,269.42,287.366 M348.39,274.253c-7.624,1.83-18.973,4.357-32.685,6.809v0.003l-0.084,0.013    c-4.541,0.811-9.348,1.615-14.356,2.381c-0.494,1.869-1.969,3.417-3.982,3.909c-22.75,5.566-40.645,20.844-50.41,40.396    c2.791-0.459,5.564-0.937,8.297-1.427c9.414-16.303,25.141-28.871,44.751-33.671c5.569-1.364,11.273-2.052,16.95-2.052    c18.125,0,34.92,6.795,47.703,18.27c7.794-2.939,15.178-5.866,22.082-8.708C376.303,288.503,363.155,279.554,348.39,274.253" fill="#898989"/><path clip-path="url(#SVGID_4_)" d="M315.621,281.077l-14.286,2.084c-0.021,0.1-0.044,0.199-0.07,0.297    C306.273,282.692,311.08,281.888,315.621,281.077 M279.811,276.485c-7.12,3.088-13.712,7.014-19.687,11.63    c3.125-0.22,6.229-0.471,9.296-0.749c3.31-2.054,6.773-3.896,10.391-5.509V276.485 M316.872,268.786L316.872,268.786    c-0.506,0-1.012,0.004-1.518,0.013l0.351,12.263c13.712-2.451,25.061-4.979,32.685-6.809    C338.494,270.7,327.873,268.786,316.872,268.786" fill="#898989"/><path clip-path="url(#SVGID_4_)" d="M315.354,268.799c-6.92,0.114-13.846,1.01-20.618,2.669    c-5.191,1.27-10.178,2.958-14.926,5.018v5.372c4.717-2.104,9.689-3.818,14.879-5.088c0.438-0.108,0.876-0.16,1.307-0.16    c2.451,0,4.68,1.672,5.291,4.162c0.198,0.811,0.205,1.623,0.048,2.39l14.286-2.084l0.084-0.013v-0.003L315.354,268.799" fill="#898989"/><path clip-path="url(#SVGID_4_)" d="M234.056,329.715c-1.572,0.221-3.153,0.435-4.736,0.641    c-0.401,1.103-0.782,2.212-1.143,3.331c1.529-0.198,3.071-0.406,4.623-0.624C233.196,331.937,233.615,330.822,234.056,329.715     M255.17,326.337c-2.733,0.49-5.506,0.968-8.297,1.427c-0.554,1.109-1.082,2.231-1.583,3.367c2.654-0.447,5.343-0.926,8.056-1.434    C253.925,328.561,254.532,327.441,255.17,326.337" fill="#898989"/><path clip-path="url(#SVGID_4_)" d="M301.265,283.458c-9.925,1.519-20.659,2.893-31.845,3.908    c-16.138,10.015-28.448,24.996-35.364,42.349c4.323-0.604,8.6-1.258,12.816-1.951c9.765-19.553,27.66-34.83,50.41-40.396    C299.296,286.875,300.771,285.327,301.265,283.458" fill="#B5B6B6"/><path clip-path="url(#SVGID_4_)" d="M279.811,281.857c-3.617,1.613-7.081,3.455-10.391,5.509    c11.186-1.016,21.92-2.39,31.845-3.908c0.026-0.098,0.05-0.197,0.07-0.297l-21.524,3.141V281.857" fill="#B5B6B6"/><path clip-path="url(#SVGID_4_)" d="M295.996,276.609c-0.431,0-0.869,0.052-1.307,0.16    c-5.189,1.27-10.162,2.983-14.879,5.088v4.444l21.524-3.141c0.157-0.767,0.15-1.579-0.048-2.39    C300.676,278.281,298.447,276.609,295.996,276.609" fill="#B5B6B6"/><path clip-path="url(#SVGID_4_)" d="M241.343,342.312c-3.862,0.575-7.73,1.099-11.602,1.566    c-2.735,12.705-2.71,26.218,0.584,39.686c0.612,2.487,2.841,4.156,5.296,4.156c0.43,0,0.862-0.049,1.301-0.154    c2.926-0.717,4.72-3.672,4.003-6.6C237.7,367.783,238.047,354.554,241.343,342.312" fill="#B5B6B6"/><path clip-path="url(#SVGID_4_)" d="M245.29,331.131c-4.238,0.716-8.404,1.358-12.49,1.932    c-1.243,3.524-2.266,7.137-3.058,10.816c3.872-0.468,7.74-0.991,11.602-1.566C242.375,338.479,243.698,334.739,245.29,331.131" fill="#B5B6B6"/><path clip-path="url(#SVGID_4_)" d="M246.873,327.764c-4.216,0.693-8.493,1.347-12.816,1.951    c-0.441,1.107-0.86,2.222-1.256,3.348c4.086-0.573,8.252-1.216,12.49-1.932C245.791,329.995,246.318,328.873,246.873,327.764" fill="#B5B6B6"/><path clip-path="url(#SVGID_4_)" d="M369.03,350.257c-2.387,1.132-4.702,2.219-6.953,3.266    c2.341,26.285-14.706,51.103-40.951,57.535c-1.947,0.477-3.146,2.445-2.664,4.396c0.404,1.662,1.889,2.771,3.53,2.771    c0.284,0,0.575-0.037,0.866-0.104C353.5,410.616,373.104,381.018,369.03,350.257" fill="#7B949A"/><path clip-path="url(#SVGID_4_)" d="M364.271,340.851c-0.291,0-0.588,0.035-0.886,0.108    c-1.945,0.477-3.14,2.443-2.663,4.396c0.666,2.727,1.114,5.453,1.355,8.167c2.251-1.047,4.566-2.134,6.953-3.266    c-0.292-2.208-0.706-4.422-1.247-6.634C367.378,341.976,365.921,340.851,364.271,340.851" fill="#EBD77C"/></g></g></svg>