<?xml version="1.0" ?><!DOCTYPE svg  PUBLIC '-//W3C//DTD SVG 1.1//EN'  'http://www.w3.org/Graphics/SVG/1.1/DTD/svg11.dtd'><svg enable-background="new 0 0 500 500" height="500px" id="Layer_1" version="1.1" viewBox="0 0 500 500" width="500px" xml:space="preserve" xmlns="http://www.w3.org/2000/svg" xmlns:xlink="http://www.w3.org/1999/xlink"><path d="M250.621,0.231c137.634,0,249.202,111.573,249.202,249.202c0,137.63-111.568,249.198-249.202,249.198  C112.993,498.631,1.42,387.062,1.42,249.433C1.42,111.804,112.993,0.231,250.621,0.231z" fill="#4A4541"/><g><g><defs><path d="M249.984,0.224c137.64,0,249.209,111.573,249.209,249.208c0,137.63-111.569,249.214-249.209,249.214     c-137.634,0-249.209-111.584-249.209-249.214C0.775,111.797,112.351,0.224,249.984,0.224z" id="SVGID_1_"/></defs><clipPath id="SVGID_2_"><use overflow="visible" xlink:href="#SVGID_1_"/></clipPath><polyline clip-path="url(#SVGID_2_)" fill="#232120" points="58.792,212.567 325.552,566.381 545.578,288.762 449.391,198.999     53.136,198.999   "/></g><g><defs><path d="M249.984,0.224c137.64,0,249.209,111.573,249.209,249.208c0,137.63-111.569,249.214-249.209,249.214     c-137.634,0-249.209-111.584-249.209-249.214C0.775,111.797,112.351,0.224,249.984,0.224z" id="SVGID_3_"/></defs><clipPath id="SVGID_4_"><use overflow="visible" xlink:href="#SVGID_3_"/></clipPath><polyline clip-path="url(#SVGID_4_)" fill="#232120" points="220,463.062 274.964,528.274 358.435,495.668 285.212,433.362     220,463.062   "/></g></g><path d="M251.986,82.961v-0.057c-0.45,0-0.907,0.021-1.365,0.028c-0.448,0-0.907-0.028-1.364-0.028v0.057  c-90.91,1.191-183.607,68.687-196.766,116.044c13.159,47.359,105.855,112.198,196.766,113.389v0.057  c0.452,0,0.907-0.029,1.364-0.029c0.451,0.009,0.908,0.029,1.365,0.029v-0.057c90.909-1.19,183.596-66.03,196.759-113.389  C435.582,151.648,342.91,84.146,251.986,82.961z" fill="#FFFFFF"/><path d="M251.271,109.82c48.516,0,87.854,39.333,87.854,87.854c0,48.519-39.339,87.856-87.854,87.856  c-48.522,0-87.856-39.337-87.856-87.856C163.414,149.152,202.748,109.82,251.271,109.82z" fill="#5CC4DD"/><circle cx="251.271" cy="197.672" fill="#245B63" r="34.891"/><path d="M280.107,414.026L280.107,414.026l-34.292-60.157l-33.989,59.654c-0.298,0.503-0.596,1.012-0.871,1.53  l-0.153,0.269h0.022c-2.8,5.409-4.405,11.54-4.405,18.04c0,21.747,17.631,39.39,39.381,39.39c21.756,0,39.396-17.643,39.396-39.39  C285.212,426.346,283.341,419.739,280.107,414.026z" fill="#5CC4DD"/><path d="M306.902,139.713c12.256,12.253,12.256,32.114,0,44.36c-12.248,12.244-11.554-8.312-23.803-20.556  c-12.249-12.246-32.796-11.558-20.553-23.804C274.793,127.469,294.654,127.469,306.902,139.713z" fill="#B3DFEF"/><path d="M200.104,246.151c-8.549-8.549-8.549-22.413,0-30.965c8.551-8.548,8.066,5.802,16.622,14.349  c8.55,8.553,22.894,8.067,14.35,16.616C222.517,254.703,208.655,254.703,200.104,246.151z" fill="#B3DFEF"/><path d="M221.879,456.64c-8.548-8.547-8.548-22.412,0-30.961c8.551-8.548,8.066,5.798,16.623,14.348  c8.55,8.556,22.894,8.066,14.35,16.613C244.292,465.195,230.431,465.195,221.879,456.64z" fill="#B3DFEF"/><path d="M255.544,413.303c4.049,0,7.329,3.289,7.329,7.329c0,4.056-3.28,7.336-7.329,7.336  c-4.05,0-7.333-3.28-7.333-7.336C248.211,416.592,251.494,413.303,255.544,413.303z" fill="#B3DFEF"/></svg>