<?xml version="1.0" ?><!DOCTYPE svg  PUBLIC '-//W3C//DTD SVG 1.1//EN'  'http://www.w3.org/Graphics/SVG/1.1/DTD/svg11.dtd'><svg enable-background="new 0 0 500 500" height="500px" version="1.1" viewBox="0 0 500 500" width="500px" xml:space="preserve" xmlns="http://www.w3.org/2000/svg" xmlns:xlink="http://www.w3.org/1999/xlink"><g id="Layer_2"><g><g><defs><path d="M498.854,250.408c0,137.92-111.819,249.731-249.752,249.731c-137.932,0-249.75-111.811-249.75-249.731      c0-137.939,111.818-249.752,249.75-249.752C387.034,0.656,498.854,112.468,498.854,250.408z" id="SVGID_1_"/></defs><clipPath id="SVGID_2_"><use overflow="visible" xlink:href="#SVGID_1_"/></clipPath><path clip-path="url(#SVGID_2_)" d="M498.854,250.408c0,137.92-111.819,249.731-249.752,249.731     c-137.932,0-249.75-111.811-249.75-249.731c0-137.939,111.818-249.752,249.75-249.752     C387.034,0.656,498.854,112.468,498.854,250.408z" fill="#5CC4DD"/><polygon clip-path="url(#SVGID_2_)" fill="#5CC4DD" points="220.78,161.425 388.745,321.796 155.355,470.858 95.961,279.702         "/><polygon clip-path="url(#SVGID_2_)" fill="#5CC4DD" points="433.548,156.88 601.515,317.249 368.123,466.312 308.73,275.156         "/><path clip-path="url(#SVGID_2_)" d="M235.883,446.01c0,48.205-39.084,87.289-87.292,87.289h-10.805     c-48.205,0-87.29-39.084-87.29-87.289V329.296c0-48.201,39.084-87.286,87.29-87.286h10.805c48.207,0,87.292,39.085,87.292,87.286     V446.01z" fill="#E74F25"/><path clip-path="url(#SVGID_2_)" d="M148.591,533.299c48.207,0,87.292-39.084,87.292-87.289     V329.296c0-48.201-39.084-87.286-87.292-87.286h-10.805v291.289H148.591z" fill="#E74F25" opacity="0.5"/><g clip-path="url(#SVGID_2_)"><path d="M451.6,447.983c0,48.207-39.085,87.292-87.29,87.292h-10.805c-48.205,0-87.289-39.085-87.289-87.292      V331.271c0-48.201,39.084-87.287,87.289-87.287h10.805c48.205,0,87.29,39.086,87.29,87.287V447.983z" fill="#AF549E"/><path d="M364.31,243.984h-5.399v291.291h5.399c48.205,0,87.29-39.085,87.29-87.292V331.271      C451.6,283.07,412.515,243.984,364.31,243.984z" fill="#AF549E" opacity="0.5"/><rect fill="#C1322F" height="83.538" width="155.683" x="278.803" y="153.947"/><g><path d="M434.757,223.327c0,12.532,4.02,22.682-22.669,22.682H301.803c-27.525,0-22.667-10.15-22.667-22.682       l0,0c0-12.523,10.145-22.673,22.667-22.673h110.285C424.613,200.653,434.757,210.804,434.757,223.327L434.757,223.327z" fill="#C1322F"/><path d="M309.469,236.406c0,8.46-6.854,15.328-15.337,15.328c-8.461,0-15.329-6.868-15.329-15.328       c0-8.482,6.868-15.337,15.329-15.337C302.614,221.069,309.469,227.924,309.469,236.406z" fill="#C1322F"/><path d="M334.205,236.406c0,8.46-6.877,15.328-15.33,15.328c-8.497,0-15.365-6.868-15.365-15.328       c0-8.482,6.868-15.337,15.365-15.337C327.328,221.069,334.205,227.924,334.205,236.406z" fill="#C1322F"/><path d="M358.903,236.406c0,8.46-6.862,15.328-15.33,15.328c-8.476,0-15.337-6.868-15.337-15.328       c0-8.482,6.861-15.337,15.337-15.337C352.041,221.069,358.903,227.924,358.903,236.406z" fill="#C1322F"/><path d="M385.138,238.665c0,8.474-6.884,15.337-15.337,15.337c-8.488,0-15.33-6.863-15.33-15.337       c0-8.461,6.842-15.338,15.33-15.338C378.254,223.327,385.138,230.204,385.138,238.665z" fill="#C1322F"/><path d="M409.845,238.665c0,8.474-6.849,15.337-15.339,15.337c-8.474,0-15.328-6.863-15.328-15.337       c0-8.461,6.854-15.338,15.328-15.338C402.996,223.327,409.845,230.204,409.845,238.665z" fill="#C1322F"/><path d="M434.558,238.665c0,8.474-6.856,15.337-15.329,15.337c-8.462,0-15.337-6.863-15.337-15.337       c0-8.461,6.875-15.338,15.337-15.338C427.701,223.327,434.558,230.204,434.558,238.665z" fill="#C1322F"/></g><path d="M434.485,153.947c0,42.984-34.849,77.835-77.842,77.835c-42.99,0-77.841-34.851-77.841-77.835      c0-42.999,34.851-77.85,77.841-77.85C399.637,76.097,434.485,110.955,434.485,153.947z" fill="#C1322F"/><g><path d="M414.106,154.194h-5.456c0-4.262-3.468-7.728-7.729-7.728s-7.729,3.466-7.729,7.728h-5.455l0.077-1.421       c0.712-6.602,6.315-11.763,13.106-11.763c6.792,0,12.396,5.161,13.106,11.763h0.079V154.194z" fill="#C1322F"/></g><path d="M444.565,202.599c0,11.409-9.256,20.657-20.664,20.657c-11.415,0-20.664-9.249-20.664-20.657      c0-11.415,9.249-20.664,20.664-20.664C435.31,181.935,444.565,191.184,444.565,202.599z" fill="#EA8425"/><path d="M306.356,202.599c0,11.409-9.255,20.657-20.664,20.657c-11.415,0-20.664-9.249-20.664-20.657      c0-11.415,9.249-20.664,20.664-20.664C297.102,181.935,306.356,191.184,306.356,202.599z" fill="#EA8425"/><path d="M424.342,207.473c0,40.015-35.667,72.443-67.698,72.443l0,0c-26.787,0-67.697-32.429-67.697-72.437      v-44.896c0-40.006,26.299-72.435,67.697-72.435l0,0c41.415,0,67.698,32.428,67.698,72.435V207.473z" fill="#F3C28C"/><path d="M424.342,208.971v-45.457c0-40.519-26.283-73.365-67.698-73.365v192.19      C385.138,282.339,424.342,249.49,424.342,208.971z" fill="#F3C28C" opacity="0.4"/><g><path d="M332.569,218.689L332.569,218.689c0.021,16.203-0.162,27.903,23.99,27.903l0,0       c23.938,0,23.946-11.764,23.932-27.967l0,0L332.569,218.689z" fill="#FFFFFF"/><path d="M356.56,250.229c-27.592,0-27.604-15.128-27.627-31.139l-0.007-3.637l3.637-0.401l51.565-0.067v3.637       c0.008,8.639,0.015,16.1-3.502,21.94C376.648,247.157,369.005,250.229,356.56,250.229z M336.221,222.322       c0.128,13.841,1.592,20.634,20.339,20.634c12.665,0,16.245-3.51,17.83-6.149c2.067-3.427,2.407-8.545,2.458-14.542       L336.221,222.322z" fill="#F04923"/></g><path d="M406.363,165.248c-32.223,0-58.336-26.113-58.336-58.328V84.579h35.881l39.056,28.606l11.521,40.762      l-0.504,8.694L406.363,165.248z" fill="#C1322F"/><path d="M310.506,140.805c21.702,0,39.29-17.589,39.29-39.285V86.475H325.63l-26.305,19.258l-7.757,27.463      l0.34,5.854L310.506,140.805z" fill="#C1322F"/><g><path d="M322.652,183.292h-5.455c0-4.262-3.467-7.73-7.729-7.73s-7.728,3.468-7.728,7.73h-5.456v-1.421       c0-0.408,0.088-0.796,0.248-1.143c1.197-6.046,6.543-10.621,12.936-10.621c6.394,0,11.735,4.575,12.937,10.621       c0.156,0.347,0.247,0.735,0.247,1.143V183.292z" fill="#C1322F"/></g><g><path d="M417.217,183.292h-5.455c0-4.262-3.467-7.73-7.729-7.73s-7.729,3.468-7.729,7.73h-5.455v-1.421       c0-0.408,0.091-0.796,0.247-1.143c1.201-6.046,6.544-10.621,12.937-10.621s11.735,4.575,12.936,10.621       c0.155,0.347,0.248,0.735,0.248,1.143V183.292z" fill="#C1322F"/></g></g><g clip-path="url(#SVGID_2_)"><path d="M226.342,202.599c0,11.409-9.255,20.657-20.664,20.657c-11.417,0-20.666-9.249-20.666-20.657      c0-11.415,9.249-20.664,20.666-20.664C217.086,181.935,226.342,191.184,226.342,202.599z" fill="#EA8425"/><path d="M88.133,202.599c0,11.409-9.257,20.657-20.665,20.657c-11.416,0-20.665-9.249-20.665-20.657      c0-11.415,9.249-20.664,20.665-20.664C78.876,181.935,88.133,191.184,88.133,202.599z" fill="#EA8425"/><path d="M221.333,165.446c0,9.107-7.388,16.488-16.479,16.488H70.466c-9.106,0-16.48-7.381-16.48-16.488l0,0      c0-9.099,7.374-16.479,16.48-16.479h134.388C213.945,148.967,221.333,156.348,221.333,165.446L221.333,165.446z" fill="#C1322F"/><path d="M206.892,211.578c0,41.408,0,74.972-67.697,74.972l0,0c-59.572,0-67.698-33.564-67.698-74.972v-46.458      c0-41.406,26.297-74.97,67.698-74.97l0,0c41.414,0,67.697,33.564,67.697,74.97V211.578z" fill="#F3C28C"/><path d="M206.892,211.578v-46.458c0-41.406-26.283-74.97-67.697-74.97V286.55      C206.892,286.55,206.892,252.985,206.892,211.578z" fill="#F3C28C" opacity="0.4"/><path d="M107.064,212.459L107.064,212.459c0.021,19.819-4.646,34.168,29.345,34.126l0,0      c33.984-0.043,29.289-14.393,29.267-34.212l0,0L107.064,212.459z" fill="#EA8425"/><path d="M107.049,197.91L107.049,197.91c0.021,19.819-4.645,26.895,29.346,26.853l0,0      c33.983-0.044,29.288-7.118,29.268-26.938l0,0L107.049,197.91z" fill="#FFFFFF"/><g><path d="M176.915,203.715c0,6.208,1.99,11.245-11.238,11.245h-54.655c-13.646,0-11.238-5.037-11.238-11.245l0,0       c0-6.209,5.029-11.238,11.238-11.238h54.655C171.886,192.477,176.915,197.505,176.915,203.715L176.915,203.715z" fill="#C1322F"/><circle cx="107.22" cy="210.193" fill="#C1322F" r="7.601"/><path d="M127.074,210.193c0,4.198-3.402,7.601-7.6,7.601c-4.205,0-7.608-3.402-7.608-7.601       c0-4.199,3.404-7.602,7.608-7.602C123.672,202.592,127.074,205.994,127.074,210.193z" fill="#C1322F"/><circle cx="131.721" cy="210.193" fill="#C1322F" r="7.601"/><path d="M152.322,211.315c0,4.206-3.411,7.602-7.602,7.602c-4.205,0-7.602-3.396-7.602-7.602       c0-4.191,3.397-7.6,7.602-7.6C148.912,203.715,152.322,207.124,152.322,211.315z" fill="#C1322F"/><path d="M164.569,211.315c0,4.206-3.396,7.602-7.602,7.602c-4.205,0-7.6-3.396-7.6-7.602       c0-4.191,3.395-7.6,7.6-7.6C161.173,203.715,164.569,207.124,164.569,211.315z" fill="#C1322F"/><path d="M176.815,211.315c0,4.206-3.396,7.602-7.602,7.602c-4.191,0-7.6-3.396-7.6-7.602       c0-4.191,3.409-7.6,7.6-7.6C173.42,203.715,176.815,207.124,176.815,211.315z" fill="#C1322F"/></g><g><path d="M104.529,176.017h-5.456c0-4.262-3.468-7.729-7.73-7.729c-4.262,0-7.728,3.466-7.728,7.729h-5.456       l0.074-1.421c0.715-6.602,6.319-11.763,13.11-11.763c6.791,0,12.396,5.161,13.109,11.763h0.076V176.017z" fill="#C1322F"/></g><g><path d="M198.198,176.017h-5.456c0-4.262-3.468-7.729-7.73-7.729c-4.262,0-7.729,3.466-7.729,7.729h-5.456       v-1.421c0-0.408,0.089-0.794,0.248-1.143c1.197-6.045,6.543-10.62,12.936-10.62s11.739,4.574,12.936,10.62       c0.16,0.349,0.25,0.735,0.25,1.143V176.017z" fill="#C1322F"/></g></g><g clip-path="url(#SVGID_2_)"><path d="M341.002,550.136c0,42.465-34.424,76.89-76.882,76.89h-16.248c-42.458,0-76.882-34.425-76.882-76.89      v-86.651c0-42.451,34.425-76.876,76.882-76.876h16.248c42.458,0,76.882,34.425,76.882,76.876V550.136z" fill="#FAD704"/><path d="M264.12,386.608h-11.168v240.417h11.168c42.458,0,76.882-34.425,76.882-76.89v-86.651      C341.002,421.033,306.578,386.608,264.12,386.608z" fill="#FAD704" opacity="0.5"/><path d="M348.9,364.445c0,11.409-9.256,20.657-20.664,20.657c-11.415,0-20.664-9.248-20.664-20.657      c0-11.408,9.249-20.657,20.664-20.657C339.645,343.788,348.9,353.037,348.9,364.445z" fill="#EA8425"/><path d="M197.685,364.445c0,11.409-9.256,20.657-20.664,20.657c-11.416,0-20.664-9.248-20.664-20.657      c0-11.408,9.249-20.657,20.664-20.657C188.429,343.788,197.685,353.037,197.685,364.445z" fill="#EA8425"/><path d="M328.875,354.558c0,41.925-33.991,75.909-75.923,75.909c-41.927,0-75.918-33.984-75.918-75.909      c0-41.94,33.991-75.928,75.918-75.928C294.884,278.63,328.875,312.617,328.875,354.558z" fill="#F3C28C"/><path d="M328.875,354.558c0-41.94-33.991-75.928-75.923-75.928v151.837      C294.884,430.467,328.875,396.482,328.875,354.558z" fill="#F3C28C" opacity="0.5"/><path d="M232.309,371.875L232.309,371.875c0.007,13.953-3.281,24.055,20.657,24.026l0,0      c23.939-0.029,20.638-10.131,20.622-24.082l0,0L232.309,371.875z" fill="#FFFFFF"/><g><path d="M216.382,342.723h-5.456c0-4.262-3.466-7.729-7.729-7.729c-4.262,0-7.728,3.467-7.728,7.729h-5.456       l0.074-1.421c0.713-6.605,6.319-11.763,13.109-11.763c6.791,0,12.396,5.157,13.11,11.763h0.074V342.723z" fill="#C1322F"/></g><g><path d="M314.584,342.723h-5.455c0-4.262-3.469-7.729-7.73-7.729s-7.729,3.467-7.729,7.729h-5.455l0.074-1.421       c0.715-6.605,6.318-11.763,13.109-11.763s12.396,5.157,13.106,11.763h0.079V342.723z" fill="#C1322F"/></g><path d="M251.095,299.39c-0.678,0-1.364-0.192-1.979-0.59c-13.44-8.727-14.416-26.496-7.61-37.955      c6.208-10.462,17.298-13.408,28.237-7.487c6.336,3.418,10.613,10.597,10.633,17.866c0.022,6.12-3.046,11.32-8.421,14.261      c-7.416,4.06-15.318,1.226-19.29-3.658c-4.105-5.043-3.854-11.717,0.643-17.002c1.301-1.538,3.605-1.712,5.127-0.417      c1.53,1.302,1.714,3.596,0.414,5.127c-3.025,3.562-1.637,6.354-0.543,7.699c2.025,2.497,6.275,3.992,10.158,1.872      c3.851-2.109,4.649-5.438,4.64-7.856c-0.016-4.535-2.882-9.365-6.816-11.49c-10.709-5.798-16.527,1.436-18.526,4.799      c-5.112,8.606-4.191,21.967,5.32,28.145c1.683,1.098,2.163,3.35,1.069,5.032C253.453,298.809,252.285,299.39,251.095,299.39z" fill="#C1322F"/></g></g></g></g><g id="Layer_1"/><g id="Layer_3"/><g id="Layer_4"/><g id="Layer_5"/></svg>