<?xml version="1.0" ?><!DOCTYPE svg  PUBLIC '-//W3C//DTD SVG 1.1//EN'  'http://www.w3.org/Graphics/SVG/1.1/DTD/svg11.dtd'><svg id="Layer_226" style="enable-background:new 0 0 243.7 243.7;" version="1.1" viewBox="0 0 243.7 243.7" xml:space="preserve" xmlns="http://www.w3.org/2000/svg" xmlns:xlink="http://www.w3.org/1999/xlink"><style type="text/css">
	.st0{fill:#475059;}
	.st1{fill:#BECBCC;}
	.st2{fill:#F3F6F8;}
</style><g><g><path class="st0" d="M0,121.9c0,67,54.8,121.9,121.9,121.9s121.9-54.8,121.9-121.9C243.7,54.8,188.9,0,121.9,0S0,54.8,0,121.9z"/></g><g><rect class="st1" height="37.5" width="85.1" x="79.3" y="34.6"/><rect class="st2" height="124" width="85.1" x="79.3" y="76"/><rect class="st2" height="14.6" width="89.8" x="77" y="21.2"/><g><g><circle class="st2" cx="166.5" cy="43.3" r="22.2"/></g><g><rect class="st1" height="23" width="85.1" x="79.3" y="73.1"/><rect class="st2" height="7.5" width="97.2" x="73.1" y="70.5"/><rect class="st2" height="4.8" width="89.8" x="77" y="84"/></g><g><rect class="st1" height="23" width="85.1" x="79.3" y="195.6"/><rect class="st2" height="7.5" width="97.2" x="73.1" y="213.6"/><rect class="st2" height="4.8" width="89.8" x="77" y="202.9"/></g></g><g><g><circle class="st2" cx="77.6" cy="43.3" r="22.2"/><circle class="st1" cx="77.6" cy="43.3" r="17.1"/><path class="st2" d="M89.7,43.3c0,6.7-5.4,12.1-12.1,12.1c-6.7,0-12.1-5.4-12.1-12.1c0-6.7,5.4-12.1,12.1-12.1       C84.3,31.2,89.7,36.7,89.7,43.3z"/><circle class="st1" cx="77.6" cy="43.3" r="7.1"/></g></g><g><g><circle class="st2" cx="165.5" cy="43.3" r="22.2"/><path class="st1" d="M182.6,43.3c0,9.5-7.7,17.1-17.1,17.1c-9.5,0-17.1-7.7-17.1-17.1c0-9.5,7.7-17.1,17.1-17.1       C174.9,26.2,182.6,33.9,182.6,43.3z"/><circle class="st2" cx="165.5" cy="43.3" r="12.1"/><path class="st1" d="M172.5,43.3c0,3.9-3.2,7.1-7.1,7.1c-3.9,0-7.1-3.2-7.1-7.1c0-3.9,3.2-7.1,7.1-7.1       C169.4,36.3,172.5,39.4,172.5,43.3z"/></g></g><path class="st1" d="M97,186.5c0,2.9-2.4,5.3-5.3,5.3l0,0c-2.9,0-5.3-2.4-5.3-5.3v-78.4c0-2.9,2.4-5.3,5.3-5.3l0,0     c2.9,0,5.3,2.4,5.3,5.3V186.5z"/><path class="st1" d="M126.3,186.5c0,2.9-2.4,5.3-5.3,5.3l0,0c-2.9,0-5.3-2.4-5.3-5.3v-78.4c0-2.9,2.4-5.3,5.3-5.3l0,0     c2.9,0,5.3,2.4,5.3,5.3V186.5z"/><path class="st1" d="M155.5,186.5c0,2.9-2.4,5.3-5.3,5.3l0,0c-2.9,0-5.3-2.4-5.3-5.3v-78.4c0-2.9,2.4-5.3,5.3-5.3l0,0     c2.9,0,5.3,2.4,5.3,5.3V186.5z"/><rect class="st1" height="4.7" width="88.6" x="77" y="26.2"/></g></g></svg>