<?xml version="1.0" ?><!DOCTYPE svg  PUBLIC '-//W3C//DTD SVG 1.1//EN'  'http://www.w3.org/Graphics/SVG/1.1/DTD/svg11.dtd'><svg enable-background="new 0 0 500 500" height="500px" id="Layer_1" version="1.1" viewBox="0 0 500 500" width="500px" xml:space="preserve" xmlns="http://www.w3.org/2000/svg" xmlns:xlink="http://www.w3.org/1999/xlink"><path d="M500.421,249.736c0,137.989-111.86,249.842-249.843,249.842c-137.982,0-249.835-111.854-249.835-249.841  C0.743,111.756,112.596-0.1,250.578-0.1C388.561-0.1,500.421,111.756,500.421,249.736z" fill="#4A4541"/><g><g><defs><path d="M499.782,249.736c0,137.989-111.86,249.842-249.844,249.842S0.1,387.727,0.1,249.737     C0.1,111.756,111.955-0.1,249.938-0.1C387.922-0.1,499.782,111.756,499.782,249.736z" id="SVGID_1_"/></defs><clipPath id="SVGID_2_"><use overflow="visible" xlink:href="#SVGID_1_"/></clipPath><polyline clip-path="url(#SVGID_2_)" fill="#232120" points="175.291,417.273 325.7,567.493 546.277,289.169 307.983,122.65   "/></g></g><path d="M250.643,95.622c0,1.833-1.485,3.32-3.318,3.32l0,0c-1.833,0-3.318-1.486-3.318-3.32V54.96  c0-1.834,1.484-3.319,3.318-3.319l0,0c1.833,0,3.318,1.485,3.318,3.319V95.622z" fill="#245B63"/><path d="M266.152,121.95c0,10.4-8.432,18.832-18.829,18.832l0,0c-10.4,0-18.832-8.431-18.832-18.832v-16.913  c0-10.398,8.431-18.832,18.832-18.832l0,0c10.397,0,18.829,8.433,18.829,18.832V121.95z" fill="#5CC4DD"/><path d="M352.938,349.635c0,48.226-39.099,87.323-87.32,87.323h-35.102c-48.228,0-87.322-39.099-87.322-87.323  V198.998c0-48.228,39.095-87.322,87.322-87.322h35.102c48.223,0,87.319,39.095,87.319,87.322L352.938,349.635L352.938,349.635z" fill="#5CC4DD"/><path d="M245.068,111.675h20.548c48.223,0,87.319,39.095,87.319,87.322v150.637  c0,48.226-39.098,87.323-87.319,87.323h-20.548" fill="#4CB0C1"/><g><path d="M329.018,339.503c0,18.319-14.852,33.172-33.172,33.172h-95.562c-18.321,0-33.172-14.853-33.172-33.172l0,0   c0-18.319,14.851-33.172,33.172-33.172h95.562C314.166,306.331,329.018,321.184,329.018,339.503L329.018,339.503z" fill="#FFFFFF"/><path d="M295.846,383.59h-95.562c-24.31,0-44.087-19.775-44.087-44.087s19.777-44.088,44.087-44.088h95.562    M200.284,317.246c-12.273,0-22.258,9.982-22.258,22.257c0,12.272,9.985,22.256,22.258,22.256h95.562   c12.271,0,22.257-9.983,22.257-22.256s-9.984-22.257-22.257-22.257H200.284z" fill="#245B63"/></g><g><path d="M244.944,306.331h51.902c18.319,0,33.171,14.853,33.171,33.172l0,0c0,18.319-14.852,33.172-33.171,33.172   h-51.902" fill="#E5E5E5"/><path d="M243.945,295.415h51.901c24.312,0,44.088,19.776,44.088,44.088s-19.777,44.087-44.088,44.087h-51.901   v-21.831h51.901c12.271,0,22.257-9.983,22.257-22.256s-9.984-22.257-22.257-22.257h-51.901" fill="#245B63"/></g><g><g><path d="M217.577,231.658c0,23.316-18.896,42.211-42.205,42.211c-23.315,0-42.211-18.896-42.211-42.211    c0-23.309,18.896-42.205,42.211-42.205C198.681,189.453,217.577,208.349,217.577,231.658z" fill="#E74F25"/><path d="M175.372,284.784c-29.296,0-53.126-23.83-53.126-53.126c0-29.29,23.831-53.12,53.126-53.12    c29.29,0,53.12,23.831,53.12,53.12C228.492,260.954,204.662,284.784,175.372,284.784z M175.372,200.369    c-17.257,0-31.295,14.035-31.295,31.289c0,17.257,14.039,31.295,31.295,31.295c17.254,0,31.289-14.039,31.289-31.295    C206.661,214.404,192.626,200.369,175.372,200.369z" fill="#FAD704"/></g><path d="M175.454,267.236c-4.008,0-7.265-3.246-7.275-7.258c-0.012-4.019,3.237-7.287,7.255-7.297   c11.558-0.035,20.959-9.467,20.959-21.024c0-4.018,3.254-7.445,7.277-7.445c4.018,0,7.273,3.096,7.273,7.114h-7.277l7.277,0.117   c0.003,19.774-15.908,35.735-35.468,35.792C175.469,267.236,175.462,267.236,175.454,267.236z M147.073,239.016   c-4.02,0-7.277-3.173-7.277-7.192v-0.166c0-19.443,15.814-35.404,35.256-35.579c0.022,0,0.044,0,0.064,0   c3.991,0,7.242,3.217,7.277,7.213c0.036,4.02-3.195,7.306-7.213,7.341c-11.486,0.104-20.833,9.533-20.833,21.024   C154.348,235.676,151.091,239.016,147.073,239.016z" fill="#CEAC2C"/><path d="M184.693,231.658c0,5.152-4.179,9.324-9.324,9.324c-5.152,0-9.323-4.172-9.323-9.324   c0-5.145,4.171-9.324,9.323-9.324C180.514,222.333,184.693,226.513,184.693,231.658z" fill="#FAD704"/></g><g><g><path d="M355.837,231.658c0,23.316-18.896,42.211-42.205,42.211c-23.315,0-42.211-18.896-42.211-42.211    c0-23.309,18.896-42.205,42.211-42.205C336.94,189.453,355.837,208.349,355.837,231.658z" fill="#E74F25"/><path d="M313.632,284.784c-29.3,0-53.127-23.83-53.127-53.126c0-29.29,23.827-53.12,53.127-53.12    c29.286,0,53.12,23.831,53.12,53.12C366.752,260.954,342.918,284.784,313.632,284.784z M313.632,200.369    c-17.261,0-31.296,14.035-31.296,31.289c0,17.257,14.035,31.295,31.296,31.295c17.256,0,31.289-14.039,31.289-31.295    C344.921,214.404,330.888,200.369,313.632,200.369z" fill="#FAD704"/></g><path d="M313.712,267.236c-4.01,0-7.264-3.246-7.277-7.258c-0.009-4.019,3.24-7.287,7.263-7.297   c11.555-0.035,20.957-9.467,20.957-21.024c0-4.018,3.255-7.443,7.275-7.443c4.016,0,7.271,3.095,7.271,7.113h-7.277l7.277,0.117   c0.007,19.774-15.904,35.736-35.462,35.792C313.726,267.236,313.726,267.236,313.712,267.236z M285.329,239.016   c-4.017,0-7.272-3.173-7.272-7.192v-0.166c0-19.443,15.813-35.404,35.258-35.579c0.021,0,0.042,0,0.062,0   c3.987,0,7.241,3.217,7.277,7.213c0.035,4.02-3.189,7.306-7.213,7.341c-11.483,0.104-20.835,9.533-20.835,21.024   C292.605,235.676,289.352,239.016,285.329,239.016z" fill="#CEAC2C"/><path d="M322.949,231.658c0,5.152-4.18,9.324-9.324,9.324s-9.322-4.172-9.322-9.324   c0-5.145,4.179-9.324,9.322-9.324C318.771,222.333,322.949,226.513,322.949,231.658z" fill="#FAD704"/></g><g><path d="M355.837,231.658c0,23.316-18.896,42.211-42.205,42.211c-23.315,0-42.211-18.896-42.211-42.211   c0-23.309,18.896-42.205,42.211-42.205C336.94,189.453,355.837,208.349,355.837,231.658z" fill="#DB411D"/><path d="M313.632,284.784c-29.3,0-53.127-23.83-53.127-53.126c0-29.29,23.827-53.12,53.127-53.12   c29.286,0,53.12,23.831,53.12,53.12C366.752,260.954,342.918,284.784,313.632,284.784z M313.632,200.369   c-17.261,0-31.296,14.035-31.296,31.289c0,17.257,14.035,31.295,31.296,31.295c17.256,0,31.289-14.039,31.289-31.295   C344.921,214.404,330.888,200.369,313.632,200.369z" fill="#E5BE00"/></g><path d="M313.712,267.236c-4.01,0-7.264-3.246-7.277-7.258c-0.009-4.019,3.24-7.287,7.263-7.297  c11.555-0.035,20.957-9.467,20.957-21.024c0-4.018,3.255-7.443,7.275-7.443c4.016,0,7.271,3.095,7.271,7.113h-7.277l7.277,0.117  c0.007,19.774-15.904,35.736-35.462,35.792C313.726,267.236,313.726,267.236,313.712,267.236z M285.329,239.016  c-4.017,0-7.272-3.173-7.272-7.192v-0.166c0-19.443,15.813-35.404,35.258-35.579c0.021,0,0.042,0,0.062,0  c3.987,0,7.241,3.217,7.277,7.213c0.035,4.02-3.189,7.306-7.213,7.341c-11.483,0.104-20.835,9.533-20.835,21.024  C292.605,235.676,289.352,239.016,285.329,239.016z" fill="#BA9625"/><path d="M322.949,231.658c0,5.152-4.18,9.324-9.324,9.324s-9.322-4.172-9.322-9.324c0-5.145,4.179-9.324,9.322-9.324  C318.771,222.333,322.949,226.513,322.949,231.658z" fill="#E5BE00"/><circle cx="247.324" cy="44.446" fill="#E74F25" r="12.815"/></svg>