<?xml version="1.0" ?><!DOCTYPE svg  PUBLIC '-//W3C//DTD SVG 1.1//EN'  'http://www.w3.org/Graphics/SVG/1.1/DTD/svg11.dtd'><svg enable-background="new 0 0 500 500" height="500px" id="Layer_1" version="1.1" viewBox="0 0 500 500" width="500px" xml:space="preserve" xmlns="http://www.w3.org/2000/svg" xmlns:xlink="http://www.w3.org/1999/xlink"><path d="M500.368,250.476c0,138.151-112.002,250.155-250.162,250.155c-138.158,0-250.162-112.004-250.162-250.155  c0-138.162,112.003-250.162,250.162-250.162C388.366,0.314,500.368,112.314,500.368,250.476z" fill="#245B63"/><g><defs><path d="M500.361,250.121c0,138.167-111.995,250.162-250.155,250.162c-138.158,0-250.158-111.995-250.158-250.162    c0-138.155,112-250.155,250.158-250.155C388.366-0.035,500.361,111.965,500.361,250.121z" id="SVGID_1_"/></defs><clipPath id="SVGID_2_"><use overflow="visible" xlink:href="#SVGID_1_"/></clipPath><polyline clip-path="url(#SVGID_2_)" fill="#234C57" points="121.262,337.419 340.637,568.285 572.22,340.606 440.059,215.44    356.709,186.822  "/><polyline clip-path="url(#SVGID_2_)" fill="#234C57" points="356.709,186.822 330.952,159.215 299.075,159.215 264.854,159.215    250.206,158.318 199.05,148.908 166.586,167.297 140.225,186.822 113.826,189.796 84.142,205.564 63.482,224.754 66.143,243.617    72.564,267.396 86.752,289.263 113.823,290.508 151.342,290.508 154.594,296.663 162.082,310.829 136.041,330.176 124.289,340.606     "/></g><g><path d="M163.837,164.913c-1.093,1.296-2.12,2.641-3.1,4.022c-9.889,11.263-26.032,16.763-41.047,16.721   c-1.925-0.2-3.886-0.299-5.867-0.299c-31.684,0-57.464,25.779-57.464,57.463s25.78,57.463,57.464,57.463   c7.581,0,14.814-1.487,21.446-4.169c5.542-0.954,15.725-1.516,19.983,5.934l0,0v0.007c1.562,2.739,2.33,6.555,1.775,11.819   l0.022-0.015c-1.739,5.465-8.172,11.058-26.387,12.452c-3.196-0.952-4.913-1.536-4.981-1.565c-3.5-1.216-7.326,0.626-8.546,4.127   c-1.225,3.501,0.626,7.329,4.126,8.546c1.213,0.42,30.283,10.438,77.062,15.562c14.968,1.637,32.789,2.846,52.766,2.846   c37.522,0,82.63-4.283,130.602-18.059c3.559-1.017,5.621-4.732,4.598-8.297c-1.025-3.557-4.739-5.621-8.304-4.596   c-3.501,1.01-6.981,1.942-10.46,2.846c-14.778-0.384-18.559-13.847-18.559-13.847s-3.101-11.819,11.678-15.711   c4.469,3.758,9.521,6.859,15.063,9.15c7.029,2.918,14.423,4.397,21.979,4.397c23.324,0,44.172-13.932,53.108-35.478   c5.878-14.187,5.878-29.8,0-43.986c-5.862-14.181-16.912-25.231-31.094-31.102c-4.682-1.942-9.536-3.236-14.479-3.891l0,0   c-0.903,0.098-3.906-0.464-4.79-0.435c-0.896-0.042-1.807-0.064-2.703-0.064c-0.263,0-0.526,0.006-0.782,0.015   c-16.522-1.012-30.141-11.749-38.851-25.944l0,0c-10.23-15.866-28.055-26.409-48.306-26.409c-7.593,0-14.85,1.494-21.495,4.188   h-0.229c-16.504,7.081-36.47,8.61-52.166,3.194c-1.71-0.966-4.536-2.291-6.346-3.084l0.671,0.08l-0.671-0.08   c-6.722-2.763-14.072-4.297-21.773-4.297C190.472,144.417,174.379,152.767,163.837,164.913 M307.734,320.833   c-16.86,11.691-36.366,17.859-56.418,17.859c-19.909,0-39.301-6.097-56.086-17.633c-5.8-3.984-11.188-8.559-16.137-13.631   c-17.789-28.548-6.223-44.594-6.223-44.594l-1.939,1.367c9.488-7.216,19.763-6.867,24.067-6.304   c4.113,0.932,8.39,1.451,12.784,1.451c13.241,0,25.444-4.519,35.174-12.075l0,0c0,0,16.08-10.801,32.187,0.498l-0.022-0.1   c9.643,7.323,21.656,11.677,34.67,11.677c3.379,0,6.688-0.314,9.911-0.876c1.794-0.043,6.753,0.064,11.883,2.319l0.868,0.812   c-0.484-0.5-0.811-0.771-0.868-0.812c3.971,1.751,8.033,4.81,10.787,10.075l-9.919-9.263c3.145,3.243,12.871,16.179-3.529,39.903   C322.69,308.894,315.576,315.397,307.734,320.833z M353.828,201.878c0,24.292-19.753,44.045-44.037,44.045   c-24.285,0-44.045-19.753-44.045-44.045c0-24.277,19.76-44.037,44.045-44.037C334.075,157.841,353.828,177.601,353.828,201.878z    M207.782,157.841c24.284,0,44.04,19.759,44.04,44.037c0,24.292-19.756,44.045-44.04,44.045c-24.286,0-44.045-19.753-44.045-44.045   C163.737,177.601,183.497,157.841,207.782,157.841z M69.783,242.82c0-24.285,19.754-44.043,44.04-44.043   c24.285,0,44.043,19.758,44.043,44.043c0,24.286-19.758,44.043-44.043,44.043C89.537,286.863,69.783,267.105,69.783,242.82z    M438.395,271.09c-6.846,16.515-22.826,27.193-40.707,27.193c-5.785,0-11.449-1.13-16.843-3.365   c-10.866-4.51-19.332-12.972-23.829-23.844c-4.497-10.865-4.497-22.832,0-33.704c6.846-16.523,22.825-27.195,40.714-27.195   c5.777,0,11.442,1.139,16.836,3.372c10.872,4.497,19.332,12.965,23.835,23.837C442.897,248.256,442.897,260.225,438.395,271.09z" fill="#FBD802"/><path d="M251.09,359.47c-17.85,0-35.738-0.968-53.16-2.875c-47.186-5.165-76.636-15.305-77.868-15.739   c-2.611-0.904-4.71-2.775-5.917-5.266c-1.201-2.497-1.362-5.308-0.452-7.927c1.833-5.236,7.899-8.204,13.178-6.361   c0.293,0.1,1.704,0.577,4.177,1.325c12.53-1.055,20.438-4.397,22.389-9.479c0.372-3.942-0.083-7.065-1.349-9.285   c-2.292-4.013-8.165-5.458-15.833-4.22c-7.172,2.846-14.718,4.282-22.435,4.282c-33.694,0-61.107-27.406-61.107-61.106   c0-33.699,27.413-61.106,61.107-61.106c2.11,0,4.194,0.106,6.24,0.313c14.933-0.015,29.55-5.949,37.939-15.498   c0.797-1.167,1.89-2.59,3.049-3.962c11.855-13.659,29.312-21.792,46.732-21.792c7.989,0,15.785,1.536,23.16,4.572   c1.975,0.861,4.944,2.262,6.749,3.277c12.782,4.265,33.182,3.397,48.938-3.365l0.969-0.296c7.087-2.778,14.559-4.188,22.193-4.188   c20.826,0,40.023,10.498,51.366,28.074c8.966,14.615,22.071,23.438,36.004,24.277c1.536-0.007,2.49,0.008,3.442,0.058   c0.171,0,1.388,0.1,2.406,0.229c0.739,0.1,1.515,0.213,1.971,0.213c6.012,0.719,11.192,2.113,16.115,4.155   c15.085,6.247,26.825,17.995,33.073,33.072c6.24,15.085,6.24,31.692-0.015,46.777c-9.492,22.912-31.655,37.726-56.467,37.726   c-8.04,0-15.904-1.573-23.374-4.668c-5.216-2.163-10.068-5.01-14.466-8.468c-9.036,3.174-7.571,9.934-7.357,10.73   c0.113,0.363,3.231,10.53,14.636,11.114c3.274-0.854,6.553-1.743,9.855-2.688c5.394-1.545,11.27,1.749,12.808,7.085   c0.769,2.662,0.448,5.465-0.896,7.885c-1.338,2.419-3.545,4.169-6.197,4.923C340.65,353.35,296.371,359.47,251.09,359.47z    M123.478,328.012c-1.306,0-2.472,0.833-2.903,2.058c-0.271,0.774-0.224,1.607,0.132,2.347c0.355,0.741,0.978,1.296,1.751,1.566   c1.201,0.413,29.891,10.302,76.262,15.369c17.163,1.878,34.784,2.832,52.37,2.832c44.604,0,88.208-6.026,129.592-17.917   c0.797-0.229,1.443-0.739,1.843-1.458c0.391-0.719,0.49-1.545,0.262-2.326c-0.455-1.581-2.176-2.562-3.798-2.106   c-3.529,1.017-7.045,1.962-10.546,2.874l-0.497,0.127l-0.513-0.014c-13.817-0.361-20.414-10.956-21.973-16.501   c-1.409-5.372-0.213-16.415,14.259-20.215l1.829-0.483l1.445,1.216c4.227,3.552,8.972,6.441,14.108,8.575   c6.582,2.726,13.514,4.112,20.586,4.112c21.851,0,41.375-13.049,49.736-33.229c5.507-13.284,5.507-27.921,0.014-41.197   c-5.501-13.278-15.847-23.624-29.13-29.131c-4.312-1.792-8.852-3.01-13.478-3.629c-0.981-0.027-1.878-0.127-2.746-0.24   c-0.641-0.086-1.245-0.171-1.594-0.18c-1.074-0.042-1.922-0.064-2.761-0.064h-1.01c-16.344-0.988-31.551-11.07-41.725-27.671   c-9.948-15.418-26.868-24.667-45.204-24.667c-6.938,0-13.713,1.322-20.126,3.925l-0.858,0.262   c-17.393,7.265-38.245,8.461-54.093,2.997c-2.221-1.188-4.899-2.44-6.613-3.188c-6.422-2.64-13.282-3.997-20.318-3.997   c-15.339,0-30.74,7.197-41.196,19.237c-0.988,1.181-1.952,2.433-2.869,3.743c-10.12,11.542-26.428,18.259-43.868,18.259   c-2.336-0.206-4.172-0.299-6.026-0.299c-29.678,0-53.821,24.144-53.821,53.821c0,29.679,24.143,53.821,53.821,53.821   c6.913,0,13.668-1.31,20.079-3.899l0.748-0.214c11.043-1.885,19.831,0.833,23.764,7.714c1.128,1.978,1.868,4.275,2.21,6.865   l3.02-2.013l-3.124,9.875c-2.752,8.646-12.704,13.685-29.581,14.972l-0.673,0.049l-0.643-0.19   c-3.441-1.025-5.284-1.665-5.358-1.694C124.158,328.076,123.82,328.012,123.478,328.012z M251.316,342.336   c-20.642,0-40.75-6.319-58.151-18.272c-5.901-4.056-11.515-8.795-16.682-14.089L176,309.355   c-16.309-26.17-9.328-42.947-6.831-47.444l-0.445-0.605c0.694-0.526,1.391-1.025,2.093-1.48l17.525-12.353l-5.216,7.294   c5.413-1.117,9.81-0.804,12.346-0.478c4.304,0.954,8.333,1.416,12.311,1.416c12.021,0,23.412-3.904,32.939-11.305   c0.522-0.37,8.175-5.422,18.489-5.422c3.696,0,7.265,0.641,10.67,1.907l-0.448-2.027l7.892,5.912   c11.843,8.994,26.483,12.781,41.752,10.12l1.203-0.064c2.533,0,7.557,0.342,12.772,2.639c5.536,2.441,9.762,6.391,12.551,11.727   l9.877,18.898l-13.648-12.736c0.356,7.158-1.85,16.563-9.918,28.226c-6.689,7.963-14.06,14.681-22.102,20.259   C292.34,335.938,272.114,342.336,251.316,342.336z M181.977,305.164c4.756,4.846,9.908,9.179,15.317,12.895   c16.18,11.114,34.861,16.991,54.022,16.991c19.308,0,38.1-5.948,54.34-17.204c7.521-5.21,14.417-11.5,20.479-18.686   c14.438-20.905,6.617-31.977,3.757-34.951l-0.327-0.313c-3.8-1.551-7.414-1.786-9.285-1.786   c-13.926,2.271-27.786-0.036-39.673-6.546l0.108,0.477l-7.665-5.293c-4.248-2.975-8.904-4.482-13.839-4.482   c-8.118,0-14.163,3.998-14.224,4.033c-14.127,10.987-32.72,15.27-50.796,11.149c-2.188-0.213-10.801-0.79-18.678,4.028   C173.89,268.322,167.676,281.99,181.977,305.164z M397.688,301.928c-6.269,0-12.41-1.231-18.237-3.651   c-11.769-4.874-20.926-14.046-25.8-25.806c-4.874-11.77-4.874-24.728,0.007-36.496c7.407-17.887,24.705-29.442,44.072-29.442   c6.262,0,12.395,1.223,18.23,3.643c11.769,4.881,20.934,14.046,25.8,25.815c4.881,11.769,4.874,24.732,0,36.495   C434.346,290.365,417.048,301.928,397.688,301.928z M397.729,213.817c-16.408,0-31.065,9.791-37.342,24.947   c-4.134,9.968-4.141,20.947-0.007,30.916c4.127,9.969,11.891,17.737,21.859,21.866c4.945,2.056,10.14,3.094,15.447,3.094   c16.407,0,31.064-9.791,37.342-24.946c4.126-9.969,4.126-20.948,0-30.917c-4.129-9.975-11.891-17.738-21.859-21.873   C408.218,214.856,403.023,213.817,397.729,213.817z M113.823,290.508c-26.292,0-47.684-21.389-47.684-47.688   c0-26.292,21.392-47.688,47.684-47.688c26.295,0,47.688,21.396,47.688,47.688C161.51,269.119,140.118,290.508,113.823,290.508z    M113.823,202.419c-22.274,0-40.397,18.13-40.397,40.401c0,22.279,18.124,40.401,40.397,40.401   c22.279,0,40.401-18.122,40.401-40.401C154.224,220.549,136.102,202.419,113.823,202.419z M309.791,249.565   c-26.295,0-47.688-21.389-47.688-47.688c0-26.284,21.393-47.68,47.688-47.68c26.291,0,47.68,21.396,47.68,47.68   C357.471,228.177,336.082,249.565,309.791,249.565z M309.791,161.484c-22.278,0-40.402,18.124-40.402,40.394   c0,22.286,18.124,40.4,40.402,40.4c22.277,0,40.395-18.115,40.395-40.4C350.186,179.607,332.068,161.484,309.791,161.484z    M207.782,249.565c-26.296,0-47.688-21.389-47.688-47.688c0-26.284,21.392-47.68,47.688-47.68c26.29,0,47.683,21.396,47.683,47.68   C255.465,228.177,234.072,249.565,207.782,249.565z M207.782,161.484c-22.279,0-40.403,18.124-40.403,40.394   c0,22.286,18.124,40.4,40.403,40.4c22.273,0,40.397-18.115,40.397-40.4C248.179,179.607,230.056,161.484,207.782,161.484z" fill="#FAD704"/></g><g><path d="M208.924,148.908l2.269,6.258c24.698,1.756,44.272,22.364,44.272,47.509   c0,13.449-5.621,25.588-14.601,34.268l2.455,6.768c3.139-1.616,8.865-3.942,15.896-3.942c3.693,0,7.265,0.64,10.667,1.914   l-0.441-2.035l7.885,5.92c11.847,8.994,26.483,12.772,41.752,10.113l1.21-0.064c0.136,0,0.349,0.021,0.497,0.021l-2.546-6.069   c-2.747,0.498-5.558,0.797-8.439,0.797c-26.299,0-47.688-21.389-47.688-47.688c0-16.016,7.962-30.184,20.115-38.836l-3.166-7.527   c-15.042,4.14-31.357,4.205-44.343-0.277c-2.22-1.189-4.896-2.441-6.617-3.181C222.029,150.35,215.562,149.053,208.924,148.908z" fill="#FAF6C6"/><path d="M348.712,322.136c-1.643-2.342-2.746-4.676-3.252-6.483c-0.171-0.633-0.291-1.365-0.362-2.135   l-7.735-18.415c-1.416,2.919-3.181,5.993-5.442,9.265c-6.696,7.963-14.06,14.687-22.108,20.258   c-9.833,6.816-20.569,11.755-31.762,14.829l4.524,12.488c25.218-1.63,49.993-5.259,74.135-10.774L348.712,322.136z" fill="#FAF6C6"/><path d="M221.987,352.042l-7.949-16.053c-7.265-2.875-14.266-6.59-20.87-11.129   c-5.898-4.056-11.518-8.795-16.686-14.096L176,310.146c-16.309-26.17-9.321-42.949-6.831-47.446l-0.441-0.604   c0.697-0.526,1.396-1.017,2.093-1.474l4.391-3.102l-34.987-70.699c-6.383,2.106-13.271,3.273-20.372,3.273   c-2.336-0.213-4.172-0.299-6.026-0.299c-5.069,0-9.962,0.754-14.615,2.064l2.942,5.578c3.742-0.954,7.639-1.509,11.672-1.509   c26.295,0,47.688,21.389,47.688,47.688c0,14.174-6.258,26.896-16.117,35.641l9.197,17.405c1.552,1.188,2.839,2.652,3.824,4.375   c1.132,1.978,1.872,4.269,2.213,6.858l0,0l1.452,2.933l19.631,37.142c5.365,0.791,11.036,1.523,17.014,2.178   C206.398,350.988,214.174,351.571,221.987,352.042z" fill="#FAF6C6"/><path d="M113.496,297.424l-4.377-6.361c-24.089-2.377-42.977-22.74-42.977-47.446c0-4.333,0.63-8.51,1.718-12.501   l-4.378-6.361c-2.209,5.884-3.476,12.217-3.476,18.863C60.006,273.181,83.971,297.238,113.496,297.424z" fill="#FAF6C6"/><path d="M447.438,234.438c-5.492-13.285-15.838-23.631-29.123-29.131c-4.319-1.793-8.852-3.017-13.476-3.627   c-0.983-0.029-1.887-0.135-2.755-0.244c-0.633-0.084-1.238-0.169-1.594-0.184c-1.067-0.042-1.913-0.056-2.761-0.056h-1.003   c-1.644-0.1-3.259-0.357-4.875-0.641l1.658,7.087c1.402-0.128,2.79-0.313,4.22-0.313c6.262,0,12.395,1.223,18.23,3.643   c11.769,4.881,20.934,14.046,25.806,25.808c4.875,11.776,4.875,24.732-0.006,36.495c-5.081,12.272-14.87,21.444-26.739,26.07   l1.407,6.026c13.77-5.102,25.147-15.611,31.003-29.742C452.931,262.345,452.938,247.716,447.438,234.438z" fill="#FAF6C6"/><path d="M122.461,334.771c0.594,0.206,7.923,2.726,20.758,5.835l-7.179-10.431c-1.636,0.22-3.309,0.42-5.098,0.562   l-0.673,0.043l-0.643-0.185c-3.441-1.025-5.284-1.672-5.358-1.7c-0.107-0.029-0.445-0.094-0.787-0.094   c-1.306,0-2.472,0.833-2.903,2.064c-0.271,0.768-0.223,1.607,0.132,2.349C121.065,333.954,121.688,334.502,122.461,334.771z" fill="#FAF6C6"/></g><path d="M199.937,177.65c0.797-0.029,1.355,0,1.355,0l-6.643-0.269c-14.821-1.254-52.056-8.974-52.056-55.046  c0,47.084-38.875,54.114-53.009,55.152l-4.455,0.163c0,0,0.267-0.029,0.741-0.029c-0.802,0.029-1.367,0-1.367,0l6.649,0.264  c14.821,1.252,52.06,8.981,52.06,55.073c0-47.082,38.878-54.141,53.005-55.151l4.462-0.186  C200.68,177.621,200.414,177.65,199.937,177.65z" fill="#FFFFFF"/><path d="M373.281,350.604c0.52-0.014,0.882,0,0.882,0l-4.354-0.178c-9.72-0.818-34.154-5.884-34.154-36.109  c0,30.887-25.502,35.497-34.78,36.181l-2.917,0.106c0,0,0.171-0.014,0.484-0.014c-0.526,0.014-0.896,0-0.896,0l4.361,0.17  c9.727,0.818,34.154,5.893,34.154,36.132c0-30.888,25.507-35.52,34.771-36.182l2.933-0.12  C373.766,350.59,373.595,350.604,373.281,350.604z" fill="#FFFFFF"/></svg>