<?xml version="1.0" ?><!DOCTYPE svg  PUBLIC '-//W3C//DTD SVG 1.1//EN'  'http://www.w3.org/Graphics/SVG/1.1/DTD/svg11.dtd'><svg height="6.82666in" style="shape-rendering:geometricPrecision; text-rendering:geometricPrecision; image-rendering:optimizeQuality; fill-rule:evenodd; clip-rule:evenodd" viewBox="0 0 6.82666 6.82666" width="6.82666in" xml:space="preserve" xmlns="http://www.w3.org/2000/svg" xmlns:xlink="http://www.w3.org/1999/xlink"><defs><style type="text/css">
   <![CDATA[
    .str0 {stroke:#212121;stroke-width:0.00333465}
    .fil2 {fill:none}
    .fil7 {fill:#424242}
    .fil9 {fill:#5F6135}
    .fil6 {fill:#717341}
    .fil8 {fill:#AFA687}
    .fil1 {fill:#DEBD25}
    .fil0 {fill:#FAD704}
    .fil3 {fill:#212121;fill-rule:nonzero}
    .fil10 {fill:#424242;fill-rule:nonzero}
    .fil5 {fill:#4D4F22;fill-rule:nonzero}
    .fil4 {fill:#616161;fill-rule:nonzero}
   ]]>
  </style><clipPath id="id0"><path d="M3.41333 -3.93701e-006c1.88513,0 3.41333,1.5282 3.41333,3.41333 0,1.88513 -1.5282,3.41333 -3.41333,3.41333 -1.88513,0 -3.41333,-1.5282 -3.41333,-3.41333 0,-1.88513 1.5282,-3.41333 3.41333,-3.41333z"/></clipPath></defs><g id="Layer_x0020_1"><path class="fil0" d="M3.41333 -3.93701e-006c1.88513,0 3.41333,1.5282 3.41333,3.41333 0,1.88513 -1.5282,3.41333 -3.41333,3.41333 -1.88513,0 -3.41333,-1.5282 -3.41333,-3.41333 0,-1.88513 1.5282,-3.41333 3.41333,-3.41333z"/><g style="clip-path:url(#id0)"><g id="_213507232"><g><polygon class="fil1" id="_3656081841" points="4.42664,2.2988 8.21291,6.08507 6.89006,6.16287 3.10379,2.37659 "/><polygon class="fil1" id="_365608376" points="3.10379,2.37659 6.89006,6.16287 6.85102,6.16287 3.06475,2.37659 "/><polygon class="fil1" id="_365609384" points="3.06475,2.37659 6.85102,6.16287 6.85102,6.26052 3.06475,2.47425 "/><polygon class="fil1" id="_365608832" points="3.2417,2.57238 7.02796,6.35865 7.03248,6.36337 7.0369,6.36817 7.04123,6.37306 7.04546,6.37802 7.04959,6.38305 7.05363,6.38817 7.05756,6.39335 7.0614,6.39861 7.06513,6.40394 7.06876,6.40935 7.07228,6.41482 7.0757,6.42036 7.07901,6.42597 7.08221,6.43165 7.0853,6.43739 7.08828,6.44319 7.09114,6.44905 7.09389,6.45498 7.09652,6.46096 7.09904,6.467 7.10143,6.4731 7.10371,6.47925 7.10586,6.48546 7.10789,6.49172 7.1098,6.49803 7.11159,6.50439 7.11324,6.5108 7.11477,6.51726 7.11617,6.52376 7.11743,6.53031 3.33117,2.74404 3.3299,2.73749 3.3285,2.73099 3.32697,2.72453 3.32532,2.71812 3.32354,2.71176 3.32163,2.70545 3.31959,2.69919 3.31744,2.69298 3.31517,2.68683 3.31277,2.68073 3.31025,2.67469 3.30762,2.6687 3.30487,2.66278 3.30201,2.65692 3.29903,2.65111 3.29594,2.64537 3.29274,2.6397 3.28943,2.63409 3.28602,2.62855 3.28249,2.62308 3.27886,2.61767 3.27513,2.61234 3.2713,2.60708 3.26736,2.60189 3.26333,2.59678 3.25919,2.59174 3.25496,2.58678 3.25063,2.5819 3.24621,2.5771 "/><polygon class="fil1" id="_365608928" points="3.63808,2.9462 7.42435,6.73248 7.43197,6.7404 7.43949,6.74841 7.44691,6.75653 7.45422,6.76474 7.46144,6.77304 7.46854,6.78144 7.47554,6.78993 7.48243,6.7985 7.48922,6.80717 7.49589,6.81593 7.50246,6.82478 7.50891,6.83371 7.51525,6.84273 7.52147,6.85183 7.52758,6.86102 7.53358,6.87029 7.53946,6.87964 7.54522,6.88907 7.55086,6.89859 7.55638,6.90818 7.56178,6.91785 7.56706,6.92759 7.57222,6.93741 7.57725,6.9473 7.58216,6.95727 7.58694,6.96731 7.59159,6.97743 7.59612,6.98761 7.60052,6.99786 7.60478,7.00818 7.60892,7.01856 3.82265,3.23229 3.81852,3.22191 3.81425,3.21159 3.80985,3.20133 3.80533,3.19115 3.80067,3.18104 3.79589,3.171 3.79098,3.16103 3.78595,3.15114 3.7808,3.14132 3.77552,3.13157 3.77011,3.12191 3.76459,3.11231 3.75895,3.1028 3.75319,3.09337 3.74731,3.08402 3.74131,3.07475 3.7352,3.06556 3.72898,3.05646 3.72264,3.04744 3.71619,3.03851 3.70963,3.02966 3.70295,3.0209 3.69617,3.01223 3.68928,3.00365 3.68228,2.99517 3.67517,2.98677 3.66796,2.97846 3.66064,2.97026 3.65322,2.96214 3.6457,2.95413 "/><polygon class="fil1" id="_365608688" points="5.28,3.01137 9.06627,6.79764 8.96449,7.41997 5.17822,3.6337 "/><polygon class="fil1" id="_365609912" points="5.17822,3.6337 8.96449,7.41997 8.95483,7.47907 5.16856,3.6928 "/><polygon class="fil1" id="_365609792" points="5.16856,3.6928 8.95483,7.47907 8.89521,7.4847 5.10894,3.69843 "/><polygon class="fil1" id="_365610176" points="2.90917,2.37659 6.69543,6.16287 6.65836,6.16287 2.87209,2.37659 "/><polygon class="fil1" id="_365609504" points="2.87209,2.37659 6.65836,6.16287 5.33354,6.08507 1.54727,2.2988 "/><polygon class="fil1" id="_365610008" points="3.64642,4.05887 7.43269,7.84515 7.41859,7.85612 7.40416,7.86674 7.3894,7.87702 7.37433,7.88695 7.35895,7.89654 7.34326,7.90579 7.32728,7.91469 7.311,7.92325 7.29444,7.93147 7.27759,7.93935 7.26048,7.9469 7.24311,7.95411 7.22547,7.96098 7.20758,7.96752 7.18944,7.97373 7.17107,7.9796 7.15246,7.98515 7.13363,7.99036 7.11458,7.99524 7.09531,7.9998 7.07584,8.00403 7.05617,8.00794 7.0363,8.01152 7.01624,8.01478 6.99601,8.01771 6.9756,8.02033 6.95502,8.02262 6.93428,8.0246 6.91339,8.02626 6.89235,8.0276 6.87117,8.02863 6.84985,8.02934 3.06358,4.24307 3.0849,4.24235 3.10608,4.24133 3.12712,4.23998 3.14802,4.23833 3.16875,4.23635 3.18933,4.23406 3.20974,4.23144 3.22998,4.2285 3.25003,4.22525 3.2699,4.22167 3.28957,4.21776 3.30904,4.21353 3.32831,4.20897 3.34736,4.20409 3.3662,4.19887 3.3848,4.19333 3.40318,4.18746 3.42131,4.18125 3.4392,4.17471 3.45684,4.16784 3.47422,4.16063 3.49133,4.15308 3.50817,4.1452 3.52473,4.13698 3.54101,4.12842 3.55699,4.11952 3.57268,4.11027 3.58806,4.10068 3.60313,4.09075 3.61789,4.08047 3.63232,4.06985 "/><polygon class="fil1" id="_365610080" points="3.06358,4.24307 6.84985,8.02934 6.84985,8.27524 3.06358,4.48896 "/><polygon class="fil1" id="_365609744" points="3.45164,4.28476 7.23791,8.07104 7.23781,8.07829 7.23754,8.0855 7.23708,8.09266 7.23645,8.09978 7.23563,8.10684 7.23465,8.11385 7.23348,8.12081 7.23216,8.12771 7.23066,8.13455 7.229,8.14133 7.22717,8.14804 7.22518,8.15469 7.22304,8.16126 7.22073,8.16777 7.21828,8.17421 7.21567,8.18057 7.21291,8.18685 7.21,8.19305 7.20695,8.19917 7.20376,8.2052 7.20042,8.21115 7.19695,8.21702 7.19334,8.22278 7.1896,8.22846 7.18572,8.23404 7.18172,8.23952 7.17759,8.2449 7.17333,8.25018 7.16895,8.25535 7.16446,8.26042 7.15984,8.26538 7.15511,8.27022 3.36884,4.48395 3.37357,4.47911 3.37819,4.47415 3.38269,4.46908 3.38707,4.46391 3.39132,4.45863 3.39545,4.45325 3.39946,4.44777 3.40333,4.44219 3.40707,4.43651 3.41068,4.43074 3.41415,4.42488 3.41749,4.41893 3.42069,4.4129 3.42374,4.40678 3.42664,4.40058 3.4294,4.3943 3.43201,4.38794 3.43446,4.3815 3.43677,4.37499 3.43891,4.36841 3.4409,4.36177 3.44273,4.35506 3.44439,4.34828 3.44589,4.34144 3.44722,4.33454 3.44838,4.32758 3.44937,4.32057 3.45018,4.3135 3.45081,4.30639 3.45127,4.29922 3.45155,4.29202 "/><polygon class="fil1" id="_365610152" points="3.36884,4.48395 7.15511,8.27022 7.15026,8.27496 7.1453,8.27957 7.14024,8.28407 7.13506,8.28845 7.12978,8.29271 7.1244,8.29684 7.11892,8.30084 7.11334,8.30472 7.10767,8.30846 7.1019,8.31207 7.09604,8.31554 7.09009,8.31887 7.08406,8.32207 7.07793,8.32512 7.07173,8.32803 7.06545,8.33078 7.05909,8.33339 7.05266,8.33585 7.04615,8.33815 7.03957,8.3403 7.03292,8.34229 7.02621,8.34411 7.01943,8.34578 7.01259,8.34728 7.00569,8.3486 6.99874,8.34976 6.99172,8.35075 6.98466,8.35157 6.97755,8.3522 6.97038,8.35266 6.96317,8.35293 6.95592,8.35303 3.16965,4.56676 3.17691,4.56666 3.18411,4.56639 3.19128,4.56593 3.19839,4.5653 3.20546,4.56448 3.21247,4.56349 3.21943,4.56233 3.22632,4.561 3.23317,4.5595 3.23994,4.55784 3.24665,4.55602 3.2533,4.55403 3.25988,4.55188 3.26639,4.54958 3.27282,4.54712 3.27919,4.54451 3.28546,4.54176 3.29167,4.53885 3.29779,4.5358 3.30382,4.5326 3.30977,4.52927 3.31563,4.5258 3.3214,4.52219 3.32707,4.51844 3.33265,4.51457 3.33813,4.51057 3.34352,4.50644 3.3488,4.50218 3.35397,4.4978 3.35904,4.4933 3.36399,4.48869 "/><polygon class="fil1" id="_365610128" points="1.548,3.67663 5.33427,7.4629 5.3341,7.46288 5.33393,7.46287 5.33377,7.46285 5.3336,7.46283 5.33343,7.46281 5.33326,7.4628 5.33309,7.46278 5.33293,7.46276 1.54666,3.67649 1.54683,3.67651 1.547,3.67652 1.54716,3.67654 1.54733,3.67656 1.5475,3.67657 1.54767,3.67659 1.54783,3.67661 "/><polygon class="fil1" id="_365609480" points="2.14796,4.16947 5.93423,7.95574 5.90345,7.94896 5.87306,7.94178 5.84309,7.93419 5.8136,7.92617 5.78461,7.91771 5.75616,7.90881 5.72829,7.89944 5.70104,7.88961 5.67446,7.87931 5.64857,7.86851 5.62341,7.85721 5.59904,7.8454 5.57547,7.83307 5.55276,7.82021 5.53093,7.8068 5.51004,7.79284 5.49011,7.77831 5.47119,7.76321 5.45332,7.74752 1.66705,3.96125 1.68493,3.97694 1.70385,3.99204 1.72377,4.00657 1.74467,4.02053 1.76649,4.03394 1.7892,4.0468 1.81277,4.05913 1.83715,4.07094 1.8623,4.08224 1.88819,4.09304 1.91478,4.10334 1.94202,4.11317 1.96989,4.12254 1.99834,4.13144 2.02733,4.13989 2.05683,4.14792 2.08679,4.15551 2.11719,4.16269 "/><polygon class="fil1" id="_365610752" points="2.34484,4.20334 6.13111,7.98961 6.12485,7.98875 6.1186,7.98788 6.11235,7.98699 6.10611,7.98609 6.09987,7.98518 6.09364,7.98426 6.08741,7.98332 6.08118,7.98238 6.07496,7.98142 6.06875,7.98044 6.06254,7.97946 6.05634,7.97846 6.05015,7.97745 6.04396,7.97643 6.03779,7.9754 6.03161,7.97435 6.02545,7.97329 6.0193,7.97221 6.01316,7.97112 6.00702,7.97002 6.00089,7.96891 5.99478,7.96778 5.98867,7.96664 5.98258,7.96548 5.97649,7.96431 5.97042,7.96313 5.96436,7.96194 5.95831,7.96072 5.95227,7.9595 5.94624,7.95826 5.94023,7.95701 5.93423,7.95574 2.14796,4.16947 2.15396,4.17074 2.15998,4.17199 2.166,4.17323 2.17204,4.17445 2.17809,4.17567 2.18415,4.17686 2.19022,4.17804 2.19631,4.17921 2.20241,4.18037 2.20851,4.18151 2.21463,4.18264 2.22075,4.18375 2.22689,4.18485 2.23303,4.18594 2.23919,4.18702 2.24535,4.18807 2.25152,4.18913 2.2577,4.19016 2.26388,4.19118 2.27007,4.19219 2.27628,4.19319 2.28248,4.19417 2.28869,4.19515 2.29491,4.19611 2.30114,4.19705 2.30737,4.19799 2.3136,4.19891 2.31984,4.19982 2.32609,4.20072 2.33233,4.20161 2.33859,4.20248 "/><polygon class="fil1" id="_365610272" points="2.05231,4.28476 5.83857,8.07104 5.83864,8.07628 5.83884,8.0815 5.83917,8.08668 5.83963,8.09182 5.84022,8.09694 5.84094,8.10201 5.84178,8.10704 5.84274,8.11203 5.84383,8.11698 5.84504,8.12189 5.84636,8.12674 5.8478,8.13156 5.84935,8.13632 5.85102,8.14103 5.8528,8.14569 5.85469,8.15029 5.85669,8.15484 5.8588,8.15933 5.86101,8.16376 5.86333,8.16813 5.86574,8.17244 5.86826,8.17668 5.87087,8.18086 5.87359,8.18497 5.87639,8.18901 5.8793,8.19298 5.88229,8.19688 5.88537,8.2007 5.88855,8.20445 5.89181,8.20812 5.89515,8.21171 5.89858,8.21522 2.11231,4.42895 2.10889,4.42544 2.10554,4.42185 2.10228,4.41818 2.09911,4.41443 2.09602,4.41061 2.09303,4.40671 2.09013,4.40274 2.08732,4.3987 2.08461,4.39459 2.08199,4.39041 2.07948,4.38617 2.07706,4.38186 2.07474,4.37749 2.07253,4.37306 2.07043,4.36857 2.06843,4.36402 2.06654,4.35941 2.06476,4.35476 2.06309,4.35005 2.06153,4.34528 2.06009,4.34047 2.05877,4.33561 2.05756,4.33071 2.05648,4.32576 2.05551,4.32077 2.05467,4.31574 2.05396,4.31067 2.05337,4.30555 2.05291,4.30041 2.05257,4.29522 2.05237,4.29001 "/><polygon class="fil1" id="_365610944" points="3.16965,4.56676 6.95592,8.35303 6.04277,8.35303 2.2565,4.56676 "/><polygon class="fil1" id="_365610368" points="2.11231,4.42895 5.89858,8.21522 5.90209,8.21865 5.90569,8.222 5.90936,8.22526 2.12309,4.43899 2.11942,4.43573 2.11583,4.43238 "/><polygon class="fil1" id="_365610440" points="2.2565,4.56676 6.04277,8.35303 6.03552,8.35293 6.02831,8.35266 6.02114,8.3522 6.01403,8.35157 6.00696,8.35075 5.99995,8.34976 5.993,8.3486 5.9861,8.34728 5.97926,8.34578 5.97248,8.34411 5.96577,8.34229 5.95912,8.3403 5.95254,8.33815 5.94603,8.33585 5.9396,8.33339 5.93324,8.33078 5.92696,8.32803 5.92076,8.32512 5.91464,8.32207 5.9086,8.31887 5.90265,8.31554 5.89679,8.31207 5.89102,8.30846 5.88535,8.30472 5.87977,8.30084 5.87429,8.29684 5.86891,8.29271 5.86363,8.28845 5.85845,8.28407 2.07219,4.4978 2.07736,4.50218 2.08264,4.50644 2.08802,4.51057 2.0935,4.51457 2.09908,4.51844 2.10476,4.52219 2.11052,4.5258 2.11639,4.52927 2.12233,4.5326 2.12837,4.5358 2.13449,4.53885 2.14069,4.54176 2.14697,4.54451 2.15333,4.54712 2.15976,4.54958 2.16627,4.55188 2.17285,4.55403 2.1795,4.55602 2.18621,4.55784 2.19299,4.5595 2.19983,4.561 2.20673,4.56233 2.21369,4.56349 2.2207,4.56448 2.22776,4.5653 2.23487,4.56593 2.24204,4.56639 2.24925,4.56666 "/><polygon class="fil1" id="_365610608" points="2.47892,2.82479 6.26519,6.61106 6.26521,6.61114 6.26524,6.61122 6.26526,6.6113 6.26528,6.61138 6.26531,6.61146 6.26533,6.61154 6.26536,6.61162 6.26538,6.6117 2.47911,2.82543 2.47909,2.82535 2.47907,2.82527 2.47904,2.82519 2.47902,2.82511 2.47899,2.82503 2.47897,2.82495 2.47894,2.82487 "/><polygon class="fil1" id="_365610680" points="5.10894,3.69843 8.89521,7.4847 7.61528,7.6055 3.82902,3.81923 "/><polygon class="fil1" id="_365610656" points="3.82902,3.81923 7.61528,7.6055 7.61143,7.61449 7.60744,7.62338 7.60332,7.63217 7.59908,7.64087 7.59472,7.64946 7.59022,7.65796 7.58561,7.66637 7.58087,7.67467 7.576,7.68288 7.57102,7.69099 7.56592,7.699 7.5607,7.70692 7.55536,7.71474 7.5499,7.72246 7.54432,7.73009 7.53863,7.73762 7.53283,7.74506 7.52691,7.75239 7.52088,7.75964 7.51474,7.76678 7.50849,7.77383 7.50213,7.78079 7.49566,7.78765 7.48908,7.79442 7.48239,7.80109 7.4756,7.80767 7.46871,7.81415 7.46171,7.82054 7.45461,7.82683 7.4474,7.83303 7.44009,7.83913 7.43269,7.84515 3.64642,4.05887 3.65383,4.05286 3.66113,4.04676 3.66834,4.04056 3.67544,4.03426 3.68244,4.02788 3.68933,4.0214 3.69613,4.01482 3.70281,4.00815 3.70939,4.00138 3.71586,3.99452 3.72222,3.98756 3.72847,3.98051 3.73461,3.97337 3.74065,3.96612 3.74656,3.95878 3.75237,3.95135 3.75806,3.94382 3.76363,3.93619 3.76909,3.92847 3.77443,3.92065 3.77965,3.91273 3.78476,3.90472 3.78974,3.89661 3.7946,3.8884 3.79934,3.88009 3.80396,3.87169 3.80845,3.86319 3.81281,3.85459 3.81706,3.8459 3.82117,3.83711 3.82516,3.82822 "/></g><path class="fil1" d="M2.98857 2.25991l1.43807 0.0388937 -1.32285 0.0777953 -0.0390433 0 0 0.0976535c0.0644252,0.014248 0.122165,0.0456614 0.16765,0.0889449 0.050563,0.0481142 0.0859606,0.110756 0.0987677,0.18085 0.113268,0.0433661 0.214965,0.110114 0.299189,0.194339 0.0829094,0.0829134 0.14889,0.182764 0.192295,0.293909l1.1832 0 0.120992 -0.245835 0.153154 0.0249134 -0.101776 0.622331 -0.00966535 0.0590984 -0.0596181 0.00562598 -1.27993 0.120803c-0.0404606,0.0964094 -0.103071,0.176028 -0.182594,0.239646 -0.148618,0.118894 -0.354748,0.178264 -0.582843,0.184193l0 0.245898 0.106075 0c0.0561102,0 0.107157,-0.0229882 0.144185,-0.0600118 0.0370236,-0.0370236 0.0600118,-0.0880709 0.0600118,-0.144189l0.0777913 0c0,0.0775906 -0.0317126,0.148098 -0.0828031,0.199189 -0.0510866,0.0510906 -0.121598,0.0828031 -0.199185,0.0828031l-0.913154 0c-0.0775866,0 -0.148094,-0.0317126 -0.199185,-0.0828031 -0.0510866,-0.0510906 -0.0828031,-0.121598 -0.0828031,-0.199189l0.0777953 0c0,0.0561181 0.0229843,0.107165 0.0600079,0.144189 0.0370276,0.0370236 0.0880709,0.0600118 0.144185,0.0600118l0.0883425 0 0 -0.285622c-0.0667402,-0.0091378 -0.132953,-0.0202835 -0.196878,-0.0338701 -0.330268,-0.070189 -0.600685,-0.207406 -0.600685,-0.470449 0,-0.00745669 0.000251969,-0.0149252 0.000720472,-0.0223976 -0.000444882,-4.33071e-005 -0.000893701,-9.05512e-005 -0.00133858,-0.000133858 0.00485433,-0.0740079 0.0327992,-0.147807 0.0762362,-0.219067 0.0856378,-0.142138 0.236512,-0.279268 0.413331,-0.39715 0.0149685,-0.0101339 0.0310197,-0.0205354 0.0479449,-0.0311063 0.124768,-0.078811 0.26098,-0.148693 0.394748,-0.204378 6.29921e-005,0.000212598 0.000129921,0.00042126 0.000192913,0.000633858 0.0254685,-0.0107441 0.0498622,-0.0204685 0.0726457,-0.0289134 -7.08661e-005,-0.000216535 -0.000137795,-0.000437008 -0.000208661,-0.000653543 0.0293898,-0.0111772 0.0585354,-0.0216063 0.0872835,-0.0312323 0.00994094,-0.084378 0.0517598,-0.158579 0.113228,-0.211992 0.0438898,-0.0381417 0.0977835,-0.0656654 0.157102,-0.0786102l0 -0.0974291 -0.0370748 0 -1.32482 -0.0777953 1.44131 -0.0388937z" id="_213507016"/></g></g><path class="fil2" d="M3.41333 -3.93701e-006c1.88513,0 3.41333,1.5282 3.41333,3.41333 0,1.88513 -1.5282,3.41333 -3.41333,3.41333 -1.88513,0 -3.41333,-1.5282 -3.41333,-3.41333 0,-1.88513 1.5282,-3.41333 3.41333,-3.41333z"/><polygon class="fil3" points="2.90917,2.57783 2.90917,2.32292 3.06475,2.32292 3.06475,2.57783 "/><polygon class="fil4" points="1.54727,2.2988 2.98857,2.25991 4.42664,2.2988 3.10379,2.37659 2.87209,2.37659 "/><path class="fil4" d="M2.63807 2.77183c0.00835827,-0.0873543 0.0507795,-0.164264 0.113996,-0.219193 0.062315,-0.0541496 0.144791,-0.0869055 0.234331,-0.0869055 0.0957244,0 0.182728,0.037248 0.246004,0.0974606 0.0642835,0.0611772 0.104055,0.145827 0.104055,0.239425 -0.0263228,0 -0.671118,-0.0282126 -0.698386,-0.0307874z"/><polygon class="fil4" points="2.42264,4.1285 2.42264,4.51745 2.34484,4.51745 2.34484,4.1285 "/><polygon class="fil4" points="3.06358,4.1285 3.06358,4.51745 2.98579,4.51745 2.98579,4.1285 "/><polygon class="fil5" points="3.80091,3.23229 5.00585,3.23229 5.12685,2.98645 5.28,3.01137 5.17822,3.6337 5.16856,3.6928 5.10894,3.69843 3.77446,3.82438 3.75987,3.67001 3.80091,3.38787 "/><path class="fil6" d="M1.54666 3.67649c0.0151535,-0.231075 0.255417,-0.46011 0.489567,-0.616217 0.136953,-0.0927087 0.364787,-0.208232 0.518063,-0.264697 0.365449,0.701165 -0.436453,0.938839 -1.00763,0.880913z"/><path class="fil7" d="M2.77026 3.1857l0.191559 0c0.0289528,0 0.0526378,0.023685 0.0526378,0.0526378l0 0.195524c0,0.0289567 -0.023685,0.0526378 -0.0526378,0.0526378l-0.191559 0c-0.0289528,0 -0.0526378,-0.0236811 -0.0526378,-0.0526378l0 -0.195524c0,-0.0289528 0.023685,-0.0526378 0.0526378,-0.0526378z"/><path class="fil7" d="M3.16844 3.23237l0.161835 0c0.0244606,0 0.0444724,0.0200118 0.0444724,0.0444724l0 0.165181c0,0.0244606 -0.0200118,0.0444685 -0.0444724,0.0444685l-0.161835 0c-0.0244606,0 -0.0444685,-0.0200079 -0.0444685,-0.0444685l0 -0.165181c0,-0.0244606 0.0200079,-0.0444724 0.0444685,-0.0444724z"/><path class="fil8" d="M1.56151 3.59679c0.0519055,-0.190551 0.240567,-0.380406 0.474717,-0.536512 0.137335,-0.0915551 0.291575,-0.172575 0.442693,-0.235488 0.0453228,0.14965 0.0538465,0.311594 -0.0406614,0.446213 -0.0668465,0.0952126 -0.170673,0.156516 -0.277083,0.198335 -0.145713,0.0572598 -0.309134,0.087811 -0.463744,0.109886 -0.0452362,0.00646063 -0.0905512,0.0122126 -0.135921,0.0175669z"/><path class="fil9" d="M3.02529 2.68775c0.23628,0 0.450205,0.0957795 0.605063,0.250634 0.15485,0.154854 0.250634,0.368783 0.250634,0.605063 0,0.228724 -0.0889213,0.398913 -0.234563,0.515429 -0.156894,0.125512 -0.377878,0.184689 -0.621134,0.184689 -0.217909,0 -0.573484,-0.00951575 -0.877327,-0.0740906 -0.330264,-0.0701929 -0.600685,-0.207406 -0.600685,-0.470449 0,-0.00755512 0.000259843,-0.0151142 0.000740157,-0.0226811 0.069189,-0.0079685 0.138276,-0.0167323 0.207126,-0.0273504 0.14561,-0.0224528 0.296673,-0.0534094 0.434106,-0.107417 0.124354,-0.0488661 0.250803,-0.120858 0.328169,-0.233122 0.106177,-0.154083 0.0885945,-0.342579 0.0341339,-0.512594 0.178232,-0.0677795 0.347453,-0.10811 0.473736,-0.10811z"/><path class="fil10" d="M3.45165 4.28477c0,0.0775866 -0.0317165,0.148094 -0.0828031,0.199185 -0.0510906,0.0510866 -0.121602,0.0828031 -0.199189,0.0828031l-0.91315 0c-0.0775906,0 -0.148098,-0.0317165 -0.199189,-0.0828031 -0.0510866,-0.0510906 -0.0828031,-0.121598 -0.0828031,-0.199185l0.0777953 0c0,0.0561142 0.0229843,0.107157 0.0600079,0.144185 0.0370276,0.0370236 0.0880709,0.0600118 0.144189,0.0600118l0.91315 0c0.0561142,0 0.107161,-0.0229882 0.144189,-0.0600118 0.0370236,-0.0370276 0.0600079,-0.0880709 0.0600079,-0.144185l0.0777953 0z"/><polygon class="fil8" points="4.55069,3.59537 4.55069,3.38787 4.26994,3.38787 4.26994,3.62187 "/><polygon class="fil8" points="5.03474,3.54969 5.00944,3.38787 4.70628,3.38787 4.70628,3.58069 "/><path class="fil8" d="M4.11435 3.63656l0 -0.248681 -0.247476 0c0.00926772,0.0504488 0.0141102,0.102445 0.0141102,0.155571 0,0.0404567 -0.00278346,0.0790827 -0.00816929,0.115906l0.241535 -0.0227953z"/><path class="fil8" d="M3.01446 3.43386l0 -0.195524c0,-0.0289528 -0.023685,-0.0526378 -0.0526378,-0.0526378l-0.191559 0c-0.0289528,0 -0.0526378,0.023685 -0.0526378,0.0526378l0 0.195524c0,0.0289567 0.023685,0.0526378 0.0526378,0.0526378l0.191559 0c0.0289528,0 0.0526378,-0.0236811 0.0526378,-0.0526378z"/><path class="fil8" d="M3.37475 3.44203l0 -0.165181c0,-0.0244606 -0.0200118,-0.0444724 -0.0444724,-0.0444724l-0.161835 0c-0.0244606,0 -0.0444685,0.0200118 -0.0444685,0.0444724l0 0.165181c0,0.0244606 0.0200079,0.0444685 0.0444685,0.0444685l0.161835 0c0.0244606,0 0.0444724,-0.0200079 0.0444724,-0.0444685z"/><line class="fil2 str0" x1="1.56185" x2="1.54824" y1="3.597" y2="3.67682"/></g></svg>